<svg width="26" height="28" viewBox="0 0 26 28" fill="none" xmlns="http://www.w3.org/2000/svg">
<path d="M24.6 20.22L23.025 17.606C22.6556 16.8814 22.4411 16.088 22.395 15.276V11.291C22.3933 9.53367 21.8939 7.81273 20.9547 6.3274C20.0155 4.84207 18.6749 3.65302 17.088 2.89795C16.6833 2.17872 16.0928 1.58146 15.3782 1.16858C14.6636 0.755706 13.8513 0.542454 13.026 0.55103C12.1944 0.550194 11.3777 0.771707 10.6605 1.19263C9.94336 1.61356 9.35179 2.2185 8.94705 2.94495C7.38963 3.71455 6.07785 4.90351 5.1592 6.37793C4.24056 7.85236 3.75141 9.55383 3.74697 11.291V15.276C3.70332 16.0836 3.48857 16.8726 3.11697 17.5909L1.527 20.22C1.21003 20.7023 1.01092 21.2524 0.945825 21.8259C0.880734 22.3994 0.951555 22.9803 1.15237 23.5214C1.35318 24.0625 1.67837 24.5487 2.10183 24.9409C2.5253 25.3331 3.03509 25.6203 3.58999 25.7791C6.64414 26.8093 9.84675 27.3309 13.07 27.323C16.2917 27.3283 19.4932 26.8124 22.5501 25.795C23.0912 25.6145 23.5848 25.3145 23.9942 24.9172C24.4035 24.5199 24.7182 24.0355 24.9148 23.5C25.1114 22.9645 25.185 22.3915 25.13 21.8237C25.075 21.2559 24.8928 20.7078 24.5971 20.22H24.6Z" fill="white"/>
</svg>
