<svg width="60" height="63" viewBox="0 0 60 63" fill="none" xmlns="http://www.w3.org/2000/svg">
<path d="M9.81726 7.07993H59.8472V3.64093C59.9046 2.79763 59.6284 1.96555 59.0781 1.32397C58.5278 0.682398 57.7475 0.282684 56.9053 0.210938H6.87524C3.62324 0.210938 0.990234 3.28493 0.990234 7.07993V55.1419C0.990234 58.9369 3.62324 62.0109 6.87524 62.0109H53.9622C57.2142 62.0109 59.8472 58.9369 59.8472 55.1419V17.3779C59.9062 16.5333 59.6308 15.6994 59.0804 15.056C58.5301 14.4126 57.7488 14.0114 56.9053 13.9389H9.81726C8.99824 13.8127 8.25141 13.3975 7.71191 12.7685C7.17242 12.1395 6.87585 11.3381 6.87585 10.5094C6.87585 9.68074 7.17242 8.87941 7.71191 8.25038C8.25141 7.62136 8.99824 7.20617 9.81726 7.07993ZM49.5493 32.5869C50.422 32.5871 51.2751 32.8461 52.0006 33.3311C52.7262 33.8161 53.2916 34.5053 53.6255 35.3116C53.9594 36.1179 54.0467 37.0052 53.8764 37.8611C53.7061 38.7171 53.2858 39.5033 52.6687 40.1204C52.0516 40.7375 51.2654 41.1578 50.4094 41.3281C49.5535 41.4984 48.6663 41.4111 47.8599 41.0772C47.0536 40.7433 46.3644 40.1778 45.8794 39.4523C45.3944 38.7267 45.1355 37.8737 45.1353 37.0009C45.1355 35.8303 45.6006 34.7078 46.4283 33.8801C47.2561 33.0523 48.3787 32.5872 49.5493 32.5869Z" fill="#ECB55C"/>
</svg>
