<svg width="43" height="44" viewBox="0 0 43 44" fill="none" xmlns="http://www.w3.org/2000/svg">
<path fill-rule="evenodd" clip-rule="evenodd" d="M21.173 0.910156C25.3525 0.910354 29.4381 2.14988 32.9131 4.47202C36.3882 6.79415 39.0965 10.0946 40.6957 13.956C42.295 17.8174 42.7134 22.0663 41.8979 26.1654C41.0824 30.2646 39.0697 34.0298 36.1143 36.9851C33.1589 39.9403 29.3936 41.9529 25.2944 42.7682C21.1952 43.5835 16.9463 43.1649 13.085 41.5655C9.22365 39.966 5.92335 37.2575 3.60138 33.7824C1.27941 30.3073 0.0400391 26.2216 0.0400391 22.0421C0.0399077 19.2669 0.586439 16.5189 1.64844 13.9549C2.71044 11.3909 4.26713 9.06126 6.22955 7.09894C8.19197 5.13661 10.5217 3.58007 13.0858 2.51819C15.6498 1.45631 18.3978 0.909894 21.173 0.910156Z" fill="#F0B90B"/>
<path d="M11.6542 22.0426L11.6692 27.6306L16.4182 30.4256V33.7006L8.89117 29.2866V20.4126L11.6542 22.0466V22.0426ZM11.6542 16.4546V19.7116L8.88916 18.0756V14.8196L11.6542 13.1836L14.4332 14.8196L11.6542 16.4546ZM18.4012 14.8196L21.1662 13.1836L23.9451 14.8196L21.1662 16.4546L18.4012 14.8196Z" fill="white"/>
<path d="M13.6519 26.4726V23.2006L16.4178 24.8356V28.0926L13.6519 26.4726ZM18.4009 31.5966L21.1659 33.2326L23.9448 31.5966V34.8536L21.1659 36.4886L18.4009 34.8536V31.6006V31.5966ZM27.9099 14.8196L30.6759 13.1836L33.4539 14.8196V18.0756L30.6759 19.7116V16.4546L27.9099 14.8196ZM30.6759 27.6306L30.6909 22.0426L33.4559 20.4076V29.2806L25.9288 33.6945V30.4236L30.6759 27.6306Z" fill="white"/>
<path d="M28.6932 26.4722L25.9282 28.0932V24.8372L28.6932 23.2012V26.4722Z" fill="white"/>
<path d="M28.6929 17.6137L28.7079 20.8847L23.9459 23.6787V29.2787L21.1809 30.8987L18.4159 29.2787V23.6787L13.6539 20.8847V17.6137L16.4309 15.9777L21.1638 18.7847L25.9259 15.9777L28.7039 17.6137H28.6929ZM13.6519 12.0267L21.1659 7.59766L28.6929 12.0267L25.9269 13.6627L21.1659 10.8557L16.4178 13.6627L13.6519 12.0267Z" fill="white"/>
</svg>
