<svg width="43" height="44" viewBox="0 0 43 44" fill="none" xmlns="http://www.w3.org/2000/svg">
<path d="M41.6691 27.0991C40.6578 31.153 38.4672 34.8159 35.3742 37.6247C32.2812 40.4336 28.4249 42.2623 24.2927 42.8795C20.1605 43.4968 15.9379 42.875 12.1591 41.0926C8.38031 39.3103 5.21487 36.4474 3.06299 32.8661C0.911111 29.2849 -0.13058 25.1459 0.0697033 20.9727C0.269987 16.7994 1.70323 12.7792 4.18817 9.42047C6.67312 6.06171 10.0982 3.51519 14.0303 2.1029C17.9625 0.690615 22.2251 0.475991 26.2792 1.48614C28.9715 2.15738 31.5052 3.35236 33.7357 5.00281C35.9661 6.65325 37.8498 8.72686 39.2789 11.1053C40.708 13.4836 41.6546 16.1202 42.0648 18.8645C42.4749 21.6087 42.3404 24.4069 41.6691 27.0991Z" fill="#F7931A"/>
<path d="M30.4884 18.9719C30.9084 16.1599 28.7673 14.6479 25.8403 13.6399L26.7893 9.83087L24.4703 9.25287L23.5454 12.9619C22.9364 12.8099 22.3104 12.6619 21.6884 12.5249L22.6194 8.79086L20.3024 8.21289L19.3524 12.0209C18.8474 11.9059 18.3523 11.7929 17.8713 11.6729V11.6609L14.6714 10.8609L14.0544 13.3369C14.0544 13.3369 15.7753 13.7369 15.7383 13.7559C16.0593 13.7943 16.3524 13.9572 16.5546 14.2095C16.7567 14.4617 16.8518 14.7833 16.8193 15.1049L15.7374 19.4439C15.8193 19.4643 15.8998 19.49 15.9784 19.5209L15.7344 19.4609L14.2173 25.5399C14.1839 25.646 14.1299 25.7444 14.0583 25.8295C13.9867 25.9147 13.899 25.9848 13.8002 26.0359C13.7014 26.087 13.5935 26.1181 13.4827 26.1273C13.3718 26.1366 13.2603 26.1239 13.1544 26.0899C13.1774 26.1239 11.4694 25.6699 11.4694 25.6699L10.3184 28.3249L13.3364 29.0769C13.8974 29.2169 14.4473 29.3649 14.9883 29.5029L14.0294 33.3569L16.3453 33.9349L17.2964 30.1229C17.9284 30.2949 18.5423 30.4529 19.1433 30.6019L18.1964 34.3959L20.5144 34.9739L21.4744 31.1289C25.4284 31.8769 28.4013 31.5749 29.6523 27.9999C30.6603 25.1199 29.6023 23.4589 27.5223 22.3759C28.3223 22.2141 29.0463 21.7924 29.5817 21.1763C30.117 20.5603 30.4338 19.7846 30.4824 18.9699L30.4884 18.9719ZM25.1884 26.4009C24.4704 29.2799 19.6234 27.7239 18.0514 27.3329L19.3243 22.2329C20.8963 22.6249 25.9354 23.4019 25.1884 26.4049V26.4009ZM25.9044 18.9299C25.2504 21.5499 21.2154 20.2189 19.9044 19.8929L21.0583 15.2629C22.3723 15.5889 26.5884 16.1999 25.9064 18.9299H25.9044Z" fill="white"/>
</svg>
