<svg width="34" height="22" viewBox="0 0 34 22" fill="none" xmlns="http://www.w3.org/2000/svg">
<path fill-rule="evenodd" clip-rule="evenodd" d="M32.8814 9.48303L24.9944 1.32702C24.7799 1.10435 24.5236 0.926152 24.2401 0.802609C23.9566 0.679066 23.6516 0.612601 23.3424 0.607022L2.66343 0.264035C2.35456 0.258606 2.04765 0.314132 1.76026 0.427426C1.47287 0.54072 1.21063 0.709546 0.988561 0.924283C0.766488 1.13902 0.588937 1.39544 0.466055 1.67886C0.343172 1.96228 0.277368 2.26717 0.272421 2.57605L0.000417427 18.623C-0.00541261 18.9327 0.0498772 19.2404 0.163107 19.5287C0.276336 19.817 0.445283 20.0801 0.660299 20.303C0.875315 20.5259 1.13217 20.7043 1.41617 20.8278C1.70018 20.9514 2.00575 21.0177 2.31542 21.023L22.9944 21.3661C23.3039 21.3725 23.6115 21.3174 23.8995 21.2041C24.1876 21.0908 24.4503 20.9215 24.6724 20.706L32.8294 12.8181C33.0522 12.6027 33.2303 12.3455 33.3536 12.0612C33.4768 11.777 33.5427 11.4712 33.5476 11.1613C33.5524 10.8515 33.496 10.5438 33.3817 10.2558C33.2674 9.9678 33.0974 9.7052 32.8814 9.48303ZM22.2894 14.172C21.6565 14.1616 21.0409 13.9638 20.5205 13.6035C20 13.2432 19.5981 12.7367 19.3656 12.1479C19.1331 11.5592 19.0804 10.9147 19.2142 10.296C19.348 9.67733 19.6623 9.11225 20.1173 8.67221C20.5723 8.23216 21.1476 7.93695 21.7704 7.82391C22.3933 7.71087 23.0356 7.78509 23.6162 8.03717C24.1969 8.28924 24.6897 8.70784 25.0324 9.24005C25.3751 9.77225 25.5522 10.3941 25.5414 11.027C25.527 11.8752 25.1763 12.683 24.5665 13.2727C23.9567 13.8625 23.1376 14.1859 22.2894 14.172Z" fill="white"/>
</svg>
