<svg width="63" height="68" viewBox="0 0 63 68" fill="none" xmlns="http://www.w3.org/2000/svg">
<path fill-rule="evenodd" clip-rule="evenodd" d="M0.111817 9.65482C0.111554 9.06157 0.228232 8.47407 0.45514 7.92593C0.682047 7.37778 1.01471 6.87972 1.4342 6.46023C1.8537 6.04073 2.35176 5.70802 2.8999 5.48112C3.44805 5.25421 4.03559 5.13755 4.62885 5.13781H58.3998C58.9931 5.13741 59.5806 5.25398 60.1288 5.48084C60.6771 5.7077 61.1752 6.04042 61.5947 6.45994C62.0142 6.87946 62.3469 7.37757 62.5738 7.92577C62.8007 8.47398 62.9172 9.06153 62.9168 9.65482V63.4288C62.9171 64.0221 62.8004 64.6096 62.5735 65.1577C62.3466 65.7059 62.0139 66.2039 61.5944 66.6234C61.1749 67.0429 60.6769 67.3756 60.1287 67.6025C59.5806 67.8294 58.9931 67.9461 58.3998 67.9458H4.62885C4.03559 67.9461 3.44805 67.8294 2.8999 67.6025C2.35176 67.3756 1.8537 67.0429 1.4342 66.6234C1.01471 66.2039 0.682047 65.7059 0.45514 65.1577C0.228232 64.6096 0.111554 64.0221 0.111817 63.4288V9.65482ZM4.59882 23.0828H58.4338V63.4588H4.59979L4.59882 23.0828ZM13.5708 2.89382C13.5678 2.59665 13.6245 2.3019 13.7375 2.02703C13.8505 1.75216 14.0175 1.50277 14.2286 1.29362C14.4397 1.08446 14.6906 0.919792 14.9665 0.809378C15.2424 0.698965 15.5377 0.64504 15.8348 0.650809H20.2798C20.8756 0.6544 21.4461 0.891214 21.8693 1.31049C22.2925 1.72977 22.5347 2.29816 22.5438 2.89382V5.13781H13.5708V2.89382ZM40.4888 2.89382C40.4858 2.59665 40.5425 2.3019 40.6555 2.02703C40.7684 1.75216 40.9354 1.50277 41.1465 1.29362C41.3577 1.08446 41.6086 0.919792 41.8845 0.809378C42.1604 0.698965 42.4557 0.64504 42.7528 0.650809H47.1998C47.7956 0.654144 48.3664 0.890885 48.7896 1.31022C49.2129 1.72955 49.4549 2.29808 49.4638 2.89382V5.13781H40.4918L40.4888 2.89382Z" fill="#ECB55C"/>
<path d="M20.7344 37.4895H22.1487C22.903 37.4895 23.542 37.2067 24.0658 36.641C24.5896 36.0753 24.8515 35.3943 24.8515 34.5981C24.8515 33.8229 24.5896 33.1944 24.0658 32.7125C23.563 32.2306 22.882 31.9896 22.023 31.9896C20.8287 31.9896 19.6449 32.681 18.4716 34.0639C18.325 34.2315 18.1783 34.2315 18.0316 34.0639L16.0202 31.7382C15.8736 31.5496 15.8631 31.3925 15.9888 31.2668C17.665 29.2763 19.7497 28.2811 22.243 28.2811C24.0448 28.2811 25.5534 28.8259 26.7686 29.9154C27.9838 31.0049 28.5914 32.4191 28.5914 34.1582C28.5914 36.1276 27.8686 37.72 26.4229 38.9352C28.3295 40.0247 29.2828 41.7009 29.2828 43.9637C29.2828 45.9751 28.5914 47.6303 27.2086 48.9293C25.8048 50.2283 24.0763 50.8778 22.023 50.8778C19.9697 50.8778 18.2726 50.2702 16.9316 49.055C15.5907 47.8398 14.8783 46.2475 14.7945 44.278C14.7945 44.0684 14.8993 43.9637 15.1088 43.9637H18.1888C18.4192 43.9637 18.5345 44.058 18.5345 44.2465C18.5764 45.1056 18.9221 45.8075 19.5716 46.3522C20.2211 46.876 21.0487 47.1379 22.0544 47.1379C23.0601 47.1379 23.8877 46.8236 24.5372 46.1951C25.1867 45.5665 25.5115 44.7703 25.5115 43.8065C25.5115 42.8637 25.2391 42.0885 24.6944 41.4809C24.1496 40.8523 23.4268 40.5066 22.5258 40.4438H20.7344C20.5249 40.4438 20.4202 40.339 20.4202 40.1295V37.8038C20.4202 37.5943 20.5249 37.4895 20.7344 37.4895ZM34.3089 47.5779C32.8422 45.5456 32.1089 42.8428 32.1089 39.4695C32.1089 36.0962 32.8422 33.3934 34.3089 31.3611C35.7965 29.3078 37.724 28.2811 40.0916 28.2811C42.4802 28.2811 44.3973 29.3078 45.8429 31.3611C47.3096 33.3934 48.0429 36.0962 48.0429 39.4695C48.0429 42.8428 47.3096 45.5456 45.8429 47.5779C44.3973 49.6312 42.4802 50.6579 40.0916 50.6579C37.724 50.6579 35.7965 49.6312 34.3089 47.5779ZM37.0117 44.8751C37.8079 46.237 38.8345 46.9179 40.0916 46.9179C41.3487 46.9179 42.3544 46.237 43.1087 44.8751C43.8839 43.5342 44.2715 41.7323 44.2715 39.4695C44.2715 37.2276 43.8839 35.4362 43.1087 34.0953C42.3335 32.7125 41.3278 32.021 40.0916 32.021C38.8345 32.021 37.8079 32.702 37.0117 34.0639C36.2574 35.4048 35.8803 37.2067 35.8803 39.4695C35.8803 41.7113 36.2574 43.5132 37.0117 44.8751Z" fill="#ECB55C"/>
</svg>
