<svg width="56" height="55" viewBox="0 0 56 55" fill="none" xmlns="http://www.w3.org/2000/svg">
<path fill-rule="evenodd" clip-rule="evenodd" d="M14.322 22.3546C14.322 21.6189 14.6143 20.9134 15.1345 20.3932C15.6547 19.873 16.3602 19.5807 17.0959 19.5807H17.124C17.8597 19.5807 18.5653 19.873 19.0856 20.3932C19.6058 20.9134 19.8979 21.6189 19.8979 22.3546C19.8979 23.0903 19.6058 23.7958 19.0856 24.316C18.5653 24.8363 17.8597 25.1285 17.124 25.1285H17.0959C16.3602 25.1285 15.6547 24.8363 15.1345 24.316C14.6143 23.7958 14.322 23.0903 14.322 22.3546ZM25.422 22.3546C25.422 21.6189 25.7143 20.9134 26.2345 20.3932C26.7547 19.873 27.4603 19.5807 28.196 19.5807H28.224C28.9597 19.5807 29.6653 19.873 30.1855 20.3932C30.7058 20.9134 30.998 21.6189 30.998 22.3546C30.998 23.0903 30.7058 23.7958 30.1855 24.316C29.6653 24.8363 28.9597 25.1285 28.224 25.1285H28.196C27.8315 25.1289 27.4704 25.0573 27.1335 24.9181C26.7966 24.7789 26.4904 24.5746 26.2325 24.317C25.9746 24.0594 25.7701 23.7534 25.6305 23.4166C25.4909 23.0799 25.4189 22.7191 25.4189 22.3546H25.422ZM39.293 19.5807C38.5573 19.5807 37.8518 19.873 37.3315 20.3932C36.8113 20.9134 36.519 21.6189 36.519 22.3546C36.519 23.0903 36.8113 23.7958 37.3315 24.316C37.8518 24.8363 38.5573 25.1285 39.293 25.1285H39.3199C40.0557 25.1285 40.7613 24.8363 41.2815 24.316C41.8017 23.7958 42.094 23.0903 42.094 22.3546C42.094 21.6189 41.8017 20.9134 41.2815 20.3932C40.7613 19.873 40.0557 19.5807 39.3199 19.5807H39.293ZM14.142 0.160759H42.249C44.3437 0.107935 46.4397 0.184106 48.525 0.388787C50.3998 0.48396 52.1725 1.27137 53.4999 2.59875C54.8273 3.92612 55.6148 5.69907 55.71 7.57385C55.9146 9.65919 55.9908 11.755 55.938 13.8497V30.8595C55.9908 32.9539 55.9146 35.0494 55.71 37.1344C55.615 39.0093 54.8276 40.7824 53.5002 42.11C52.1728 43.4376 50.4 44.2252 48.525 44.3204C46.4397 44.5251 44.3437 44.6013 42.249 44.5485H33.744C33.4289 44.5486 33.1219 44.6485 32.8669 44.8336L20.6379 53.7277C20.0449 54.1589 19.3443 54.4179 18.6133 54.4757C17.8823 54.5335 17.1495 54.3876 16.4961 54.0548C15.8427 53.722 15.2941 53.2151 14.9109 52.59C14.5277 51.9648 14.3249 51.2461 14.3249 50.5128V44.5485C12.1696 44.6162 10.0121 44.54 7.86694 44.3204C5.99174 44.2257 4.21852 43.4381 2.89087 42.1105C1.56321 40.7828 0.77576 39.0096 0.681027 37.1344C0.47636 35.0494 0.400188 32.9539 0.452999 30.8595V13.8497C0.400167 11.755 0.476339 9.65919 0.681027 7.57385C0.776 5.69883 1.5636 3.92571 2.89123 2.59826C4.21886 1.27081 5.99191 0.483499 7.86694 0.388787C9.95095 0.184253 12.0457 0.108082 14.139 0.160759H14.142Z" fill="#ECB55C"/>
</svg>
