<svg width="1465" height="444" viewBox="0 0 1465 444" fill="none" xmlns="http://www.w3.org/2000/svg">
<path d="M0 281.219C0 281.219 93.52 105.131 144.423 109.827C195.326 114.523 256.883 294.128 312.523 281.219C368.163 268.31 415.513 129.785 449.843 141.519C484.173 153.253 498.378 310.562 531.525 303.519C564.672 296.476 582.425 167.345 613.207 172.04C643.989 176.735 647.537 240.126 674.764 231.909C701.991 223.692 720.932 0.648438 764.732 0.648438C808.532 0.648438 848.782 369.258 931.647 368.083C1014.51 366.909 1001.49 31.1706 1059.5 18.2576C1117.5 5.34457 1126.97 234.258 1214.57 237.78C1302.17 241.302 1372.02 62.6614 1420.55 64.5244C1469.09 66.3874 1464.35 123.909 1464.35 123.909V443.209H0V281.219Z" fill="url(#paint0_linear_1081_82131)"/>
<defs>
<linearGradient id="paint0_linear_1081_82131" x1="732.24" y1="427.72" x2="732.24" y2="55.0834" gradientUnits="userSpaceOnUse">
<stop stop-opacity="0"/>
<stop offset="0.197" stop-color="#3A1003" stop-opacity="0.29"/>
<stop offset="0.394" stop-color="#6D1E07" stop-opacity="0.541"/>
<stop offset="0.579" stop-color="#942A09" stop-opacity="0.741"/>
<stop offset="0.747" stop-color="#B1320B" stop-opacity="0.882"/>
<stop offset="0.893" stop-color="#C2370C" stop-opacity="0.969"/>
<stop offset="1" stop-color="#C9390D"/>
</linearGradient>
</defs>
</svg>
