<svg width="55" height="56" viewBox="0 0 55 56" fill="none" xmlns="http://www.w3.org/2000/svg">
<path d="M27.687 54.7047C42.4788 54.7047 54.47 42.7135 54.47 27.9217C54.47 13.1298 42.4788 1.13867 27.687 1.13867C12.8952 1.13867 0.903992 13.1298 0.903992 27.9217C0.903992 42.7135 12.8952 54.7047 27.687 54.7047Z" stroke="#ECB55C" stroke-miterlimit="10"/>
<path d="M37.687 25.6998V36.8109C37.6867 37.1055 37.5696 37.3879 37.3613 37.5962C37.153 37.8045 36.8706 37.9216 36.576 37.9219H25.465C25.1703 37.9219 24.8876 37.8049 24.6791 37.5966C24.4706 37.3882 24.3533 37.1057 24.353 36.8109V25.6998C24.353 25.5538 24.3817 25.4092 24.4376 25.2743C24.4935 25.1394 24.5755 25.0168 24.6787 24.9136C24.782 24.8103 24.9045 24.7284 25.0394 24.6725C25.1743 24.6166 25.319 24.5879 25.465 24.5879H36.576C36.8707 24.5882 37.1533 24.7054 37.3616 24.9139C37.57 25.1225 37.687 25.4051 37.687 25.6998ZM21.02 30.1439H19.909V20.1439H29.909V21.2549C29.909 21.5495 30.026 21.8322 30.2344 22.0405C30.4427 22.2489 30.7254 22.3658 31.02 22.3658C31.3147 22.3658 31.5972 22.2489 31.8056 22.0405C32.014 21.8322 32.131 21.5495 32.131 21.2549V19.0328C32.1311 18.8869 32.1025 18.7424 32.0467 18.6075C31.9909 18.4727 31.9091 18.3501 31.8059 18.2469C31.7027 18.1438 31.5802 18.062 31.4453 18.0062C31.3105 17.9504 31.166 17.9217 31.02 17.9219H18.8C18.6541 17.9217 18.5095 17.9504 18.3747 18.0062C18.2398 18.062 18.1173 18.1438 18.0141 18.2469C17.9109 18.3501 17.8291 18.4727 17.7733 18.6075C17.7175 18.7424 17.6889 18.8869 17.689 19.0328V31.2549C17.6889 31.4008 17.7175 31.5453 17.7733 31.6802C17.8291 31.815 17.9109 31.9376 18.0141 32.0408C18.1173 32.144 18.2398 32.2258 18.3747 32.2816C18.5095 32.3374 18.6541 32.366 18.8 32.3658H21.022C21.3166 32.3658 21.5993 32.2489 21.8076 32.0405C22.016 31.8322 22.133 31.5495 22.133 31.2549C22.133 30.9602 22.016 30.6776 21.8076 30.4692C21.5993 30.2609 21.3166 30.1439 21.022 30.1439H21.02Z" fill="#ECB55C"/>
</svg>
