<svg width="30" height="29" viewBox="0 0 30 29" fill="none" xmlns="http://www.w3.org/2000/svg">
<path d="M14.9712 6.56055H23.6713C23.7353 6.56055 23.7983 6.56055 23.8623 6.56055C23.9523 6.56055 24.0022 6.59554 23.9972 6.69254C23.9972 6.72954 23.9972 6.76656 23.9972 6.80356V22.7235C24.017 22.883 23.9778 23.0443 23.887 23.1768C23.7962 23.3094 23.6601 23.4043 23.5043 23.4435C23.4387 23.4588 23.3715 23.4658 23.3042 23.4645H6.68532C6.58987 23.4754 6.49314 23.4657 6.40175 23.4362C6.31035 23.4066 6.22631 23.3579 6.15529 23.2932C6.08427 23.2285 6.02796 23.1494 5.99 23.0612C5.95205 22.9729 5.93342 22.8776 5.93532 22.7816C5.92901 22.7077 5.92659 22.6336 5.92824 22.5595C5.92824 17.7182 5.92824 12.8769 5.92824 8.03555C5.92824 7.59755 5.94323 7.15854 5.94423 6.71954C5.94423 6.60054 5.99226 6.55555 6.10426 6.56155C6.15726 6.56155 6.2102 6.56155 6.2632 6.56155H14.9773L14.9712 6.56055ZM15.9093 16.3686C15.9093 15.3786 15.9093 14.3889 15.9093 13.3995C15.9093 13.3125 15.8663 13.1815 15.9373 13.1495C16.0083 13.1175 16.0752 13.2396 16.1372 13.2996C16.8872 14.0456 17.6323 14.7995 18.3843 15.5415C18.4783 15.6408 18.5931 15.7181 18.7206 15.7677C18.848 15.8174 18.9849 15.8381 19.1214 15.8286C19.2578 15.819 19.3905 15.7794 19.5098 15.7124C19.6291 15.6455 19.732 15.553 19.8113 15.4416C19.9448 15.2512 20.0044 15.0187 19.979 14.7875C19.9536 14.5564 19.8449 14.3424 19.6732 14.1855C18.3546 12.8635 17.0343 11.5429 15.7123 10.2235C15.6214 10.1135 15.5073 10.0251 15.3781 9.96448C15.2489 9.90389 15.1078 9.87269 14.9651 9.87317C14.8224 9.87365 14.6815 9.90577 14.5527 9.96722C14.424 10.0287 14.3104 10.1179 14.2202 10.2285L11.8862 12.5626C11.3402 13.1086 10.7923 13.6535 10.2483 14.2015C10.094 14.3491 9.99269 14.5434 9.95997 14.7544C9.92726 14.9653 9.96496 15.1812 10.0673 15.3686C10.1418 15.493 10.244 15.5985 10.366 15.6769C10.4879 15.7553 10.6263 15.8045 10.7704 15.8207C10.9145 15.8368 11.0604 15.8195 11.1967 15.7701C11.333 15.7206 11.4561 15.6404 11.5563 15.5356C12.3183 14.7796 13.0762 14.0175 13.8352 13.2585C13.8652 13.2285 13.8943 13.1966 13.9263 13.1696C13.9583 13.1426 13.9733 13.1325 13.9933 13.1365C14.0333 13.1435 14.0233 13.1855 14.0253 13.2145C14.0253 13.2625 14.0253 13.3145 14.0253 13.3575C14.0253 15.3462 14.0253 17.3356 14.0253 19.3256C14.0243 19.4474 14.0353 19.5689 14.0582 19.6885C14.083 19.8091 14.1317 19.9235 14.2016 20.0248C14.2714 20.1262 14.3609 20.2125 14.4647 20.2786C14.5685 20.3448 14.6845 20.3894 14.8059 20.4098C14.9273 20.4302 15.0515 20.4261 15.1713 20.3976C15.3902 20.3464 15.5841 20.2197 15.7189 20.0397C15.8537 19.8598 15.9207 19.638 15.9082 19.4135C15.9112 18.4005 15.9093 17.3836 15.9093 16.3686Z" fill="#ECB55C"/>
<path d="M14.9811 0.534972C19.2478 0.534972 23.5125 0.534972 27.7752 0.534972C28.1582 0.5095 28.5384 0.615335 28.8532 0.834991C29.0415 0.969364 29.1944 1.14733 29.2989 1.3537C29.4034 1.56007 29.4563 1.78869 29.4532 2.01999C29.4532 4.44799 29.4532 6.87598 29.4532 9.30398C29.4628 9.50472 29.4316 9.7053 29.3614 9.89361C29.2912 10.0819 29.1835 10.254 29.0448 10.3995C28.9062 10.545 28.7395 10.6608 28.5547 10.74C28.37 10.8191 28.1711 10.8599 27.9701 10.86C27.3201 10.883 26.6701 10.86 26.0171 10.869C25.8871 10.869 25.8742 10.801 25.8742 10.699C25.8742 10.233 25.8742 9.76798 25.8742 9.29898V5.74298C25.8832 5.58379 25.8553 5.42467 25.7929 5.27795C25.7305 5.13124 25.6352 5.00086 25.5142 4.89697C25.4208 4.81814 25.3116 4.76031 25.1939 4.72736C25.0762 4.6944 24.9529 4.68709 24.8322 4.70596C24.7061 4.72079 24.5791 4.72715 24.4522 4.72497C18.8909 4.72497 13.3299 4.72497 7.76921 4.72497C6.86921 4.72497 5.96913 4.72499 5.06913 4.70099C4.93423 4.69464 4.79954 4.7164 4.6735 4.76492C4.54747 4.81344 4.4329 4.88765 4.33708 4.98282C4.24125 5.07799 4.16625 5.19202 4.11686 5.31772C4.06748 5.44342 4.04479 5.57804 4.05021 5.71298C4.05021 7.01498 4.05021 8.31699 4.05021 9.61899C4.05021 9.97799 4.04521 10.338 4.05021 10.698C4.05021 10.831 4.00319 10.871 3.87419 10.87C3.24019 10.865 2.60416 10.87 1.97416 10.864C1.57738 10.864 1.1967 10.7068 0.915569 10.4268C0.634436 10.1467 0.47575 9.76675 0.474163 9.36996C0.432163 7.05196 0.466195 4.73497 0.457195 2.41797C0.451306 2.20612 0.461988 1.99414 0.489177 1.78397C0.539461 1.47892 0.683958 1.19727 0.902385 0.978484C1.12081 0.759698 1.40224 0.614748 1.70719 0.563964C1.84801 0.541141 1.99059 0.530793 2.13322 0.532989H14.9761L14.9811 0.534972Z" fill="white"/>
<path d="M14.97 25.2628H23.6851C23.7431 25.2628 23.8011 25.2628 23.8591 25.2628C23.9491 25.2628 23.995 25.2968 23.995 25.3938C23.995 26.0938 24.0021 26.8018 23.9891 27.5058C23.9748 27.6717 23.897 27.8257 23.772 27.9358C23.647 28.0459 23.4845 28.1036 23.318 28.0968C22.926 28.1018 22.534 28.0968 22.143 28.0968C17.005 28.0968 11.867 28.0988 6.72905 28.1028C6.6198 28.1145 6.50935 28.1017 6.40569 28.0653C6.30202 28.0288 6.20777 27.9697 6.12993 27.8921C6.05208 27.8146 5.99257 27.7206 5.95573 27.617C5.9189 27.5135 5.90567 27.4031 5.91704 27.2938C5.92604 26.6938 5.91704 26.0938 5.91704 25.4998C5.91704 25.2658 5.92303 25.2598 6.15703 25.2598L14.97 25.2628Z" fill="#ECB55C"/>
</svg>
