<svg width="47" height="47" viewBox="0 0 47 47" fill="none" xmlns="http://www.w3.org/2000/svg">
<path d="M23.409 46.561C36.0707 46.561 46.335 36.2967 46.335 23.635C46.335 10.9733 36.0707 0.708984 23.409 0.708984C10.7474 0.708984 0.483032 10.9733 0.483032 23.635C0.483032 36.2967 10.7474 46.561 23.409 46.561Z" fill="#F9F9F9"/>
<path d="M22.6557 31.2735V25.4238C20.2183 24.8699 18.4124 24.05 17.238 22.9643C16.0858 21.8786 15.4875 20.4272 15.4432 18.6103C15.4211 16.7268 16.0526 15.1536 17.3377 13.8906C18.6229 12.6054 20.3955 11.8742 22.6557 11.697V10.6998C22.6557 10.4783 22.7554 10.3675 22.9548 10.3675H24.4172C24.6388 10.3675 24.7496 10.4783 24.7496 10.6998V11.697C26.1012 11.8077 27.3199 12.0736 28.4057 12.4946C29.5136 12.9156 30.3223 13.3699 30.832 13.8574C30.9871 13.946 31.0092 14.1011 30.8984 14.3227L29.569 17.3805C29.4803 17.5799 29.3252 17.6131 29.1036 17.4802C27.7298 16.4831 26.2785 15.8848 24.7496 15.6854V21.6016C27.2534 22.222 29.0704 23.0529 30.2005 24.0944C31.3527 25.1358 31.962 26.5539 32.0285 28.3487C32.0728 30.2764 31.4413 31.8718 30.134 33.1348C28.8267 34.42 27.0319 35.1401 24.7496 35.2952V38.3863C24.7496 38.6078 24.6388 38.7186 24.4172 38.7186H22.988C22.7664 38.7186 22.6557 38.6078 22.6557 38.3863V35.2952C20.9938 35.1623 19.4981 34.8078 18.1687 34.2316C16.9278 33.6555 16.0193 33.1016 15.4432 32.5698C15.3103 32.4368 15.2881 32.2707 15.3768 32.0712L17.0386 29.1464C17.1716 28.947 17.3377 28.9248 17.5372 29.0799C18.9774 30.2764 20.6836 31.0077 22.6557 31.2735ZM24.7496 25.8892V31.3068C25.7467 31.2182 26.5444 30.9412 27.1427 30.4759C27.7409 29.9884 28.0401 29.368 28.0401 28.6146C28.0179 27.9942 27.752 27.4735 27.2424 27.0525C26.7327 26.6093 25.9018 26.2215 24.7496 25.8892ZM22.6557 21.0698V15.6854C21.7029 15.7962 20.9273 16.1064 20.3291 16.616C19.7308 17.1035 19.4317 17.6685 19.4317 18.3111C19.4317 18.9759 19.6643 19.5187 20.1296 19.9397C20.6171 20.3386 21.4591 20.7153 22.6557 21.0698Z" fill="#330202"/>
</svg>
