<svg width="51" height="51" viewBox="0 0 51 51" fill="none" xmlns="http://www.w3.org/2000/svg">
<path d="M25.6089 50.3555C39.416 50.3555 50.6089 39.1626 50.6089 25.3555C50.6089 11.5484 39.416 0.355469 25.6089 0.355469C11.8018 0.355469 0.608887 11.5484 0.608887 25.3555C0.608887 39.1626 11.8018 50.3555 25.6089 50.3555Z" fill="#ECB55C"/>
<path d="M24.7862 32.6086V26.2297C22.1283 25.6256 20.1591 24.7316 18.8785 23.5476C17.622 22.3637 16.9696 20.781 16.9213 18.7997C16.8971 16.7458 17.5858 15.0303 18.9872 13.653C20.3886 12.2516 22.3216 11.4542 24.7862 11.2609V10.1736C24.7862 9.93198 24.895 9.81116 25.1124 9.81116H26.7072C26.9488 9.81116 27.0696 9.93198 27.0696 10.1736V11.2609C28.5435 11.3817 29.8725 11.6717 31.0564 12.1308C32.2646 12.5899 33.1465 13.0852 33.7023 13.6168C33.8714 13.7134 33.8956 13.8826 33.7747 14.1242L32.325 17.4586C32.2283 17.6761 32.0592 17.7124 31.8176 17.5674C30.3195 16.4801 28.7368 15.8277 27.0696 15.6102V22.0616C29.8 22.7382 31.7813 23.6443 33.0136 24.7799C34.2701 25.9156 34.9346 27.462 35.007 29.4192C35.0554 31.5213 34.3667 33.261 32.9411 34.6383C31.5155 36.0397 29.5584 36.825 27.0696 36.9942V40.3649C27.0696 40.6065 26.9488 40.7273 26.7072 40.7273H25.1487C24.907 40.7273 24.7862 40.6065 24.7862 40.3649V36.9942C22.974 36.8492 21.3431 36.4626 19.8933 35.8344C18.5402 35.2061 17.5495 34.6021 16.9213 34.0222C16.7763 33.8772 16.7521 33.696 16.8488 33.4785L18.661 30.289C18.806 30.0716 18.9872 30.0474 19.2047 30.2165C20.7752 31.5213 22.6358 32.3187 24.7862 32.6086ZM27.0696 26.7371V32.6449C28.1569 32.5482 29.0268 32.2462 29.6792 31.7388C30.3316 31.2072 30.6578 30.5307 30.6578 29.7091C30.6336 29.0326 30.3436 28.4647 29.7879 28.0057C29.2322 27.5224 28.3261 27.0996 27.0696 26.7371ZM24.7862 21.4817V15.6102C23.7472 15.731 22.9015 16.0693 22.2492 16.625C21.5968 17.1566 21.2706 17.7728 21.2706 18.4735C21.2706 19.1984 21.5243 19.7903 22.0317 20.2494C22.5633 20.6844 23.4814 21.0951 24.7862 21.4817Z" fill="#330202"/>
</svg>
