<svg width="59" height="47" viewBox="0 0 59 47" fill="none" xmlns="http://www.w3.org/2000/svg">
<path fill-rule="evenodd" clip-rule="evenodd" d="M12.141 0.308594H46.854C48.116 0.308594 49.205 0.308629 50.106 0.369629C51.0778 0.412525 52.036 0.615337 52.942 0.969727C55.0573 1.84592 56.7378 3.52636 57.614 5.6416C57.9685 6.54753 58.1712 7.50565 58.214 8.47754C58.275 9.37754 58.275 10.4675 58.275 11.7305V34.9307C58.275 36.1927 58.275 37.2816 58.214 38.1826C58.1712 39.1548 57.9685 40.1132 57.614 41.0195C56.7377 43.1345 55.0571 44.8146 52.942 45.6904C52.0362 46.0455 51.0779 46.2483 50.106 46.2905C49.206 46.3515 48.116 46.3516 46.854 46.3516H12.141C10.879 46.3516 9.79 46.3515 8.888 46.2905C7.91604 46.2483 6.95777 46.0455 6.052 45.6904C3.93689 44.8146 2.25633 43.1345 1.38 41.0195C1.02503 40.1134 0.822324 39.1549 0.780029 38.1826C0.718029 37.2826 0.718018 36.1927 0.718018 34.9307V11.7305C0.718018 10.4675 0.718029 9.37854 0.780029 8.47754C0.822288 7.50559 1.025 6.54739 1.38 5.6416C2.2562 3.52636 3.93676 1.84592 6.052 0.969727C6.95797 0.615337 7.91613 0.412525 8.888 0.369629C9.79 0.308629 10.879 0.308594 12.141 0.308594ZM7.39099 6.8623C7.89373 6.28809 8.60392 5.93705 9.36542 5.88623C10.1269 5.83541 10.8774 6.08899 11.452 6.59131L27.6021 20.7236C28.1268 21.1824 28.8 21.4351 29.4969 21.4351C30.1939 21.4351 30.8673 21.1824 31.392 20.7236L47.543 6.59131C48.1173 6.08886 48.8678 5.83541 49.6292 5.88623C50.3905 5.93705 51.1006 6.28798 51.603 6.8623C52.1055 7.43663 52.3592 8.18733 52.3083 8.94873C52.2575 9.71013 51.9064 10.4199 51.332 10.9224L35.181 25.0547C33.6075 26.4314 31.5877 27.1899 29.4969 27.1899C27.4062 27.1899 25.3865 26.4314 23.813 25.0547L7.66199 10.9224C7.08784 10.4198 6.73679 9.71007 6.68597 8.94873C6.63516 8.18739 6.88873 7.43672 7.39099 6.8623Z" fill="#ECB55C"/>
</svg>
