<svg width="43" height="43" viewBox="0 0 43 43" fill="none" xmlns="http://www.w3.org/2000/svg">
<path d="M21.173 42.6469C32.8445 42.6469 42.306 33.1853 42.306 21.5139C42.306 9.84243 32.8445 0.380859 21.173 0.380859C9.50161 0.380859 0.0400391 9.84243 0.0400391 21.5139C0.0400391 33.1853 9.50161 42.6469 21.173 42.6469Z" fill="#627EEA"/>
<path d="M21.8301 5.66406V17.3791L31.7301 21.8041L21.8301 5.66406Z" fill="white" fill-opacity="0.6"/>
<path d="M21.8301 5.66406L11.9302 21.8041L21.8301 17.3791V5.66406Z" fill="white"/>
<path d="M21.8301 29.3964V37.3574L31.7391 23.6484L21.8301 29.3964Z" fill="white" fill-opacity="0.6"/>
<path d="M21.8301 37.3574V29.3954L11.9302 23.6484L21.8301 37.3574Z" fill="white"/>
<path d="M21.8301 27.5548L31.7301 21.8048L21.8301 17.3828V27.5548Z" fill="white" fill-opacity="0.2"/>
<path d="M11.9272 21.8018L21.8273 27.5518V17.3828L11.9272 21.8018Z" fill="white" fill-opacity="0.6"/>
</svg>
