<svg width="47" height="47" viewBox="0 0 47 47" fill="none" xmlns="http://www.w3.org/2000/svg">
<path d="M1.05297 18.1653C2.15582 13.7088 4.55544 9.6794 7.94836 6.58667C11.3413 3.49393 15.5752 1.47676 20.1145 0.790279C24.6538 0.103801 29.2947 0.778807 33.4504 2.72998C37.6061 4.68114 41.0899 7.82081 43.4612 11.7519C45.8325 15.6831 46.9849 20.2291 46.7725 24.8152C46.5601 29.4012 44.9926 33.8212 42.2681 37.5164C39.5436 41.2115 35.7844 44.0157 31.4662 45.5745C27.1479 47.1332 22.4645 47.3764 18.0081 46.2733C15.0489 45.5414 12.263 44.2337 9.80932 42.4249C7.35569 40.6161 5.28248 38.3416 3.708 35.7314C2.13352 33.1213 1.0886 30.2266 0.633053 27.2125C0.177509 24.1985 0.320204 21.1242 1.05297 18.1653Z" fill="#0076BD"/>
<path d="M8.77698 32.021L8.177 30.193L7.58496 32.025H5.66296L7.21802 33.155L6.62598 34.979L8.18103 33.849L9.73596 34.979L9.13599 33.151L10.687 32.021H8.77698ZM5.86206 25.26L7.42102 26.386L6.82104 24.562L8.37195 23.428H6.45105L5.85095 21.604L5.26294 23.432L3.34204 23.4401L4.901 24.562L4.31201 26.39L5.86206 25.26ZM32.989 38.6221L32.401 36.795L31.801 38.618L29.8831 38.6111L31.434 39.745L30.834 41.573L32.3929 40.446L33.944 41.5801L33.356 39.7531L34.9139 38.626L32.989 38.6221ZM15.332 38.665L14.739 36.842L14.147 38.6691H12.226L13.781 39.795L13.192 41.623L14.743 40.489L16.298 41.615L15.698 39.792L17.249 38.661L15.332 38.665ZM24.307 41.035L23.707 39.2111L23.115 41.043H21.2L22.751 42.173L22.166 43.996L23.717 42.866L25.276 43.989L24.676 42.165L26.223 41.035H24.307ZM39.532 32.035L38.932 30.2111L38.339 32.035H36.418L37.9771 33.161L37.385 34.989L38.936 33.858L40.491 34.985L39.891 33.161L41.446 32.027L39.532 32.035ZM43.776 23.407L41.855 23.399L41.27 21.571L40.67 23.395L38.749 23.387L40.3 24.521L39.7 26.345L41.2581 25.223L42.8101 26.36L42.2209 24.5291L43.776 23.407ZM37.241 17.374L38.791 16.244L40.3459 17.374L39.751 15.55L41.3051 14.416H39.384L38.7841 12.5851L38.192 14.416H36.27L37.829 15.546L37.241 17.374ZM32.502 6.21301L31.9139 8.03699H29.9919L31.551 9.16296L30.959 10.991L32.51 9.86499L34.0649 10.9871L33.465 9.16296L35.016 8.02905H33.099L32.502 6.21301ZM6.49304 17.5131L8.04395 16.3821L9.599 17.509L8.99902 15.681L10.554 14.551H8.63306L8.03296 12.7271L7.44104 14.5551H5.52002L7.07495 15.682L6.49304 17.5131ZM13.045 10.9661L14.599 9.83508L16.15 10.962L15.558 9.13403L17.109 8.00403H15.191L14.5909 6.18005L13.999 8.00806H12.078L13.6331 9.13403L13.045 10.9661ZM22.0031 8.573L23.558 7.44299L25.113 8.573L24.521 6.745L26.072 5.61902H24.151L23.558 3.79102L22.9659 5.61902H21.045L22.5959 6.745L22.0031 8.573Z" fill="#FFD201"/>
</svg>
