<svg width="34" height="34" viewBox="0 0 34 34" fill="none" xmlns="http://www.w3.org/2000/svg">
<path d="M29.95 0.359376H3.50999C3.04898 0.359113 2.59245 0.449737 2.16647 0.626038C1.7405 0.802339 1.35345 1.06086 1.02747 1.38684C0.70148 1.71283 0.442949 2.09988 0.266648 2.52585C0.090347 2.95182 -0.00026234 3.40837 5.70503e-07 3.86939V30.3094C-0.00026234 30.7704 0.090347 31.2269 0.266648 31.6529C0.442949 32.0789 0.70148 32.4659 1.02747 32.7919C1.35345 33.1179 1.7405 33.3764 2.16647 33.5527C2.59245 33.729 3.04898 33.8196 3.50999 33.8194H29.95C30.411 33.8196 30.8676 33.729 31.2935 33.5527C31.7195 33.3764 32.1065 33.1179 32.4325 32.7919C32.7585 32.4659 33.0171 32.0789 33.1934 31.6529C33.3697 31.2269 33.4603 30.7704 33.46 30.3094V3.86939C33.4603 3.40837 33.3697 2.95182 33.1934 2.52585C33.0171 2.09988 32.7585 1.71283 32.4325 1.38684C32.1065 1.06086 31.7195 0.802339 31.2935 0.626038C30.8676 0.449737 30.411 0.359113 29.95 0.359376ZM16.73 26.4294L8.95 18.6394H22.96V21.7594H16.73V26.4294ZM10.51 15.5294V12.4194H16.73V7.74939L24.51 15.5294H10.51Z" fill="white"/>
</svg>
