<svg width="1468" height="722" viewBox="0 0 1468 722" fill="none" xmlns="http://www.w3.org/2000/svg">
<mask id="mask0_1081_82126" style="mask-type:luminance" maskUnits="userSpaceOnUse" x="2" y="0" width="1465" height="722">
<path d="M1429.78 0.435547H38.704C18.4329 0.435547 2 16.8685 2 37.1395V684.515C2 704.786 18.4329 721.219 38.704 721.219H1429.78C1450.05 721.219 1466.48 704.786 1466.48 684.515V37.1395C1466.48 16.8685 1450.05 0.435547 1429.78 0.435547Z" fill="white"/>
</mask>
<g mask="url(#mask0_1081_82126)">
<path d="M2 559.219C2 559.219 95.52 383.131 146.423 387.827C197.326 392.523 258.883 572.128 314.523 559.219C370.163 546.31 417.513 407.785 451.843 419.519C486.173 431.253 500.378 588.562 533.525 581.519C566.672 574.476 584.425 445.345 615.207 450.04C645.989 454.735 649.537 518.126 676.764 509.909C703.991 501.692 722.932 278.648 766.732 278.648C810.532 278.648 850.782 647.258 933.647 646.083C1016.51 644.909 1003.49 309.171 1061.5 296.258C1119.5 283.345 1128.97 512.258 1216.57 515.78C1304.17 519.302 1374.02 340.661 1422.55 342.524C1471.09 344.387 1466.35 401.909 1466.35 401.909V721.209H2V559.219Z" fill="url(#paint0_linear_1081_82126)"/>
<path d="M2 559.219C2 559.219 95.52 383.131 146.423 387.827C197.326 392.523 258.883 572.128 314.523 559.219C370.163 546.31 417.513 407.785 451.843 419.519C486.173 431.253 500.378 588.562 533.525 581.519C566.672 574.476 584.425 445.345 615.207 450.04C645.989 454.735 649.537 518.126 676.764 509.909C703.991 501.692 722.932 278.648 766.732 278.648C810.532 278.648 850.782 647.257 933.647 646.083C1016.51 644.909 1003.49 309.171 1061.5 296.258C1119.5 283.345 1128.97 512.258 1216.57 515.78C1304.17 519.302 1374.02 340.661 1422.55 342.524C1471.09 344.387 1466.35 401.909 1466.35 401.909" stroke="#ED4E29" stroke-width="2.057" stroke-linecap="round" stroke-linejoin="round"/>
</g>
<defs>
<linearGradient id="paint0_linear_1081_82126" x1="734.24" y1="705.72" x2="734.24" y2="333.083" gradientUnits="userSpaceOnUse">
<stop stop-opacity="0"/>
<stop offset="0.197" stop-color="#3A1003" stop-opacity="0.29"/>
<stop offset="0.394" stop-color="#6D1E07" stop-opacity="0.541"/>
<stop offset="0.579" stop-color="#942A09" stop-opacity="0.741"/>
<stop offset="0.747" stop-color="#B1320B" stop-opacity="0.882"/>
<stop offset="0.893" stop-color="#C2370C" stop-opacity="0.969"/>
<stop offset="1" stop-color="#C9390D"/>
</linearGradient>
</defs>
</svg>
