<svg width="33" height="24" viewBox="0 0 33 24" fill="none" xmlns="http://www.w3.org/2000/svg">
<path d="M7.74805 11.8321C7.74782 10.3115 8.14062 8.81666 8.88843 7.49267C9.63623 6.16867 10.7136 5.06049 12.016 4.27563C13.3184 3.49076 14.8014 3.05588 16.3214 3.01321C17.8414 2.97054 19.3467 3.32151 20.691 4.03207L22.839 1.88506C21.0604 0.762404 19.0132 0.137491 16.9109 0.0754322C14.8085 0.0133738 12.7281 0.516456 10.8864 1.53225C9.04465 2.54804 7.50917 4.03933 6.44006 5.85061C5.37095 7.66189 4.80731 9.72681 4.80798 11.8301H0.397949L6.27795 17.7101L12.1591 11.8301L7.74805 11.8321Z" fill="white"/>
<path d="M26.859 5.95117L20.979 11.8312H25.389C25.3893 13.3518 24.9963 14.8466 24.2485 16.1706C23.5007 17.4946 22.4235 18.6028 21.1211 19.3876C19.8187 20.1725 18.3355 20.6074 16.8156 20.65C15.2956 20.6927 13.7904 20.3417 12.446 19.6312L10.298 21.7792C12.0766 22.9019 14.124 23.5268 16.2264 23.5888C18.3289 23.6509 20.4094 23.1477 22.2511 22.1317C24.0928 21.1158 25.6284 19.6244 26.6974 17.813C27.7664 16.0016 28.3298 13.9365 28.329 11.8332H32.739L26.859 5.95117Z" fill="#ECB55C"/>
</svg>
