<svg width="34" height="34" viewBox="0 0 34 34" fill="none" xmlns="http://www.w3.org/2000/svg">
<path d="M29.95 0.500001H3.50999C3.04898 0.499738 2.59245 0.590362 2.16647 0.766663C1.7405 0.942964 1.35345 1.20148 1.02747 1.52747C0.70148 1.85345 0.442949 2.2405 0.266648 2.66647C0.090347 3.09245 -0.00026234 3.549 5.70503e-07 4.01001V30.45C-0.00026234 30.911 0.090347 31.3675 0.266648 31.7935C0.442949 32.2195 0.70148 32.6065 1.02747 32.9325C1.35345 33.2585 1.7405 33.5171 2.16647 33.6934C2.59245 33.8697 3.04898 33.9603 3.50999 33.96H29.95C30.411 33.9603 30.8676 33.8697 31.2935 33.6934C31.7195 33.5171 32.1065 33.2585 32.4325 32.9325C32.7585 32.6065 33.0171 32.2195 33.1934 31.7935C33.3697 31.3675 33.4603 30.911 33.46 30.45V4.01001C33.4603 3.549 33.3697 3.09245 33.1934 2.66647C33.0171 2.2405 32.7585 1.85345 32.4325 1.52747C32.1065 1.20148 31.7195 0.942964 31.2935 0.766663C30.8676 0.590362 30.411 0.499738 29.95 0.500001ZM16.73 26.57L8.95 18.78H22.96V21.9H16.73V26.57ZM10.51 15.67V12.56H16.73V7.89002L24.51 15.67H10.51Z" fill="#630202"/>
</svg>
