<svg width="53" height="53" viewBox="0 0 53 53" fill="none" xmlns="http://www.w3.org/2000/svg">
<path d="M26.4814 45.1245H11.7104C11.1424 45.1353 10.578 45.031 10.0511 44.8184C9.52426 44.6058 9.04568 44.2892 8.64417 43.8872C8.24265 43.4852 7.92647 43.0061 7.71448 42.479C7.50248 41.9519 7.39911 41.3874 7.41052 40.8193V11.5503C7.3998 10.9827 7.50364 10.4186 7.71594 9.89209C7.92824 9.36554 8.24455 8.88729 8.646 8.48584C9.04745 8.08439 9.52582 7.76845 10.0524 7.55615C10.5789 7.34385 11.1428 7.23976 11.7104 7.25049H26.4814C27.4036 7.23136 28.3064 7.5161 29.0509 8.06055C29.7954 8.60499 30.3402 9.37913 30.6014 10.2637H37.5945C37.2655 7.54323 35.9549 5.03615 33.9088 3.21338C31.8627 1.39061 29.2217 0.377069 26.4814 0.363281H11.7104C8.74663 0.376958 5.90814 1.56049 3.81238 3.65625C1.71662 5.75201 0.533208 8.59086 0.519531 11.5547V40.8232C0.532945 43.7872 1.71622 46.6262 3.81201 48.7222C5.9078 50.8181 8.74645 52.0019 11.7104 52.0156H26.4814C29.2217 52.0018 31.8627 50.9883 33.9088 49.1655C35.9549 47.3428 37.2655 44.8357 37.5945 42.1152H30.6005C30.3384 42.9988 29.7934 43.7718 29.0492 44.3154C28.305 44.8591 27.4028 45.1435 26.4814 45.1245Z" fill="white"/>
<path d="M50.2363 23.0938L44.0054 16.8629C43.3563 16.2331 42.4855 15.8839 41.5811 15.8907C40.6767 15.8975 39.8113 16.26 39.1718 16.8995C38.5322 17.539 38.1699 18.4043 38.1631 19.3087C38.1563 20.2131 38.5055 21.0839 39.1354 21.733L40.1433 22.7413H14.6134C13.7001 22.7413 12.8242 23.1038 12.1785 23.7496C11.5327 24.3954 11.1699 25.2714 11.1699 26.1847C11.1699 27.0979 11.5327 27.9739 12.1785 28.6197C12.8242 29.2655 13.7001 29.628 14.6134 29.628H40.1433L39.1354 30.6373C38.4897 31.283 38.127 32.1583 38.127 33.0714C38.127 33.9845 38.4897 34.8603 39.1354 35.506C39.7811 36.1516 40.6567 36.5143 41.5698 36.5143C42.4829 36.5143 43.3587 36.1516 44.0044 35.506L50.2714 29.2389C50.8446 28.9538 51.3265 28.5141 51.6621 27.9688C51.9977 27.4236 52.1737 26.7951 52.1699 26.1549C52.1662 25.5147 51.9828 24.8885 51.6409 24.3473C51.2989 23.806 50.8119 23.3712 50.2354 23.0929L50.2363 23.0938Z" fill="white"/>
</svg>
