<svg width="27" height="27" viewBox="0 0 27 27" fill="none" xmlns="http://www.w3.org/2000/svg">
<path fill-rule="evenodd" clip-rule="evenodd" d="M13.9952 26.7729H13.8282C10.409 26.7429 7.14011 25.3635 4.73291 22.9351C2.32571 20.5066 0.975098 17.226 0.975098 13.8066C0.975098 10.3873 2.32571 7.10616 4.73291 4.67773C7.14011 2.24931 10.409 0.869871 13.8282 0.839844H13.9952C17.4144 0.869871 20.6834 2.24931 23.0906 4.67773C25.4978 7.10616 26.8484 10.3873 26.8484 13.8066C26.8484 17.226 25.4978 20.5066 23.0906 22.9351C20.6834 25.3635 17.4144 26.7429 13.9952 26.7729ZM13.9122 7.32422C13.5459 7.32422 13.1879 7.43273 12.8833 7.63623C12.5787 7.83973 12.3413 8.12888 12.2012 8.46729C12.061 8.80569 12.0244 9.17786 12.0958 9.53711C12.1673 9.89636 12.3437 10.2263 12.6027 10.4854C12.8617 10.7444 13.1917 10.9207 13.5509 10.9922C13.9102 11.0636 14.2826 11.0274 14.621 10.8872C14.9594 10.747 15.2486 10.5096 15.4521 10.2051C15.6556 9.90052 15.7643 9.54207 15.7643 9.17578C15.764 8.68468 15.5688 8.21396 15.2216 7.8667C14.8743 7.51944 14.4033 7.32448 13.9122 7.32422ZM15.7643 14.7329C15.753 14.249 15.5529 13.7889 15.2067 13.4507C14.8605 13.1124 14.3957 12.9229 13.9117 12.9229C13.4278 12.9229 12.963 13.1124 12.6168 13.4507C12.2706 13.7889 12.0704 14.249 12.0592 14.7329V18.438C12.0704 18.9219 12.2706 19.382 12.6168 19.7202C12.963 20.0585 13.4278 20.248 13.9117 20.248C14.3957 20.248 14.8605 20.0585 15.2067 19.7202C15.5529 19.382 15.753 18.9219 15.7643 18.438V14.7329ZM13.9952 26.7729H13.8282C10.409 26.7429 7.14011 25.3635 4.73291 22.9351C2.32571 20.5066 0.975098 17.226 0.975098 13.8066C0.975098 10.3873 2.32571 7.10616 4.73291 4.67773C7.14011 2.24931 10.409 0.869871 13.8282 0.839844H13.9952C17.4144 0.869871 20.6834 2.24931 23.0906 4.67773C25.4978 7.10616 26.8484 10.3873 26.8484 13.8066C26.8484 17.226 25.4978 20.5066 23.0906 22.9351C20.6834 25.3635 17.4144 26.7429 13.9952 26.7729ZM13.9122 7.32422C13.5459 7.32422 13.1879 7.43273 12.8833 7.63623C12.5787 7.83973 12.3413 8.12888 12.2012 8.46729C12.061 8.80569 12.0244 9.17786 12.0958 9.53711C12.1673 9.89636 12.3437 10.2263 12.6027 10.4854C12.8617 10.7444 13.1917 10.9207 13.5509 10.9922C13.9102 11.0636 14.2826 11.0274 14.621 10.8872C14.9594 10.747 15.2486 10.5096 15.4521 10.2051C15.6556 9.90052 15.7643 9.54207 15.7643 9.17578C15.764 8.68468 15.5688 8.21396 15.2216 7.8667C14.8743 7.51944 14.4033 7.32448 13.9122 7.32422ZM15.7643 14.7329C15.753 14.249 15.5529 13.7889 15.2067 13.4507C14.8605 13.1124 14.3957 12.9229 13.9117 12.9229C13.4278 12.9229 12.963 13.1124 12.6168 13.4507C12.2706 13.7889 12.0704 14.249 12.0592 14.7329V18.438C12.0704 18.9219 12.2706 19.382 12.6168 19.7202C12.963 20.0585 13.4278 20.248 13.9117 20.248C14.3957 20.248 14.8605 20.0585 15.2067 19.7202C15.5529 19.382 15.753 18.9219 15.7643 18.438V14.7329ZM13.9952 26.7729H13.8282C10.409 26.7429 7.14011 25.3635 4.73291 22.9351C2.32571 20.5066 0.975098 17.226 0.975098 13.8066C0.975098 10.3873 2.32571 7.10616 4.73291 4.67773C7.14011 2.24931 10.409 0.869871 13.8282 0.839844H13.9952C17.4144 0.869871 20.6834 2.24931 23.0906 4.67773C25.4978 7.10616 26.8484 10.3873 26.8484 13.8066C26.8484 17.226 25.4978 20.5066 23.0906 22.9351C20.6834 25.3635 17.4144 26.7429 13.9952 26.7729ZM13.9122 7.32422C13.5459 7.32422 13.1879 7.43273 12.8833 7.63623C12.5787 7.83973 12.3413 8.12888 12.2012 8.46729C12.061 8.80569 12.0244 9.17786 12.0958 9.53711C12.1673 9.89636 12.3437 10.2263 12.6027 10.4854C12.8617 10.7444 13.1917 10.9207 13.5509 10.9922C13.9102 11.0636 14.2826 11.0274 14.621 10.8872C14.9594 10.747 15.2486 10.5096 15.4521 10.2051C15.6556 9.90052 15.7643 9.54207 15.7643 9.17578C15.764 8.68468 15.5688 8.21396 15.2216 7.8667C14.8743 7.51944 14.4033 7.32448 13.9122 7.32422ZM15.7643 14.7329C15.753 14.249 15.5529 13.7889 15.2067 13.4507C14.8605 13.1124 14.3957 12.9229 13.9117 12.9229C13.4278 12.9229 12.963 13.1124 12.6168 13.4507C12.2706 13.7889 12.0704 14.249 12.0592 14.7329V18.438C12.0704 18.9219 12.2706 19.382 12.6168 19.7202C12.963 20.0585 13.4278 20.248 13.9117 20.248C14.3957 20.248 14.8605 20.0585 15.2067 19.7202C15.5529 19.382 15.753 18.9219 15.7643 18.438V14.7329Z" fill="white"/>
</svg>
