<svg width="771" height="157" viewBox="0 0 771 157" fill="none" xmlns="http://www.w3.org/2000/svg">
<path d="M1.18311 39.0005C1.18311 39.0005 61.6031 78.5865 153.475 72.1005C245.347 65.6145 239.553 3.00053 293.352 1.43853C347.151 -0.123469 330.597 40.3166 387.706 56.8776C444.815 73.4386 442.333 55.8776 470.474 81.8776C498.615 107.878 518.479 108.657 538.343 92.2215C558.207 75.7866 582.21 16.3086 620.282 17.8746C658.354 19.4406 693.118 59.5355 727.052 57.0955C760.986 54.6555 769.252 22.5405 769.252 22.5405V156.215H1.18311V39.0005Z" fill="url(#paint0_linear_1081_16197)"/>
<path d="M1.18311 39.0005C1.18311 39.0005 61.6031 78.5865 153.475 72.1005C245.347 65.6145 239.553 3.00053 293.352 1.43853C347.151 -0.123469 330.597 40.3166 387.706 56.8776C444.815 73.4386 442.333 55.8776 470.474 81.8776C498.615 107.878 518.479 108.657 538.343 92.2215C558.207 75.7866 582.21 16.3086 620.282 17.8746C658.354 19.4406 693.118 59.5355 727.052 57.0955C760.986 54.6555 769.252 22.5405 769.252 22.5405" stroke="#ED4E29" stroke-width="2.057" stroke-linecap="round" stroke-linejoin="round"/>
<path opacity="0.38" d="M1.18311 65.4919C1.18311 65.4919 61.6031 105.078 153.475 98.5918C245.347 92.1058 239.553 29.4918 293.352 27.9288C347.151 26.3658 330.597 66.8078 387.706 83.3688C444.815 99.9298 442.333 82.3688 470.474 108.369C498.615 134.369 518.479 135.149 538.343 118.714C558.207 102.279 582.21 42.8008 620.282 44.3658C658.354 45.9308 693.118 86.0268 727.052 83.5878C760.986 81.1488 769.252 49.0318 769.252 49.0318" stroke="#ED4E29" stroke-width="1.337" stroke-linecap="round" stroke-linejoin="round"/>
<defs>
<linearGradient id="paint0_linear_1081_16197" x1="385.218" y1="158.692" x2="385.218" y2="-2.94043" gradientUnits="userSpaceOnUse">
<stop stop-opacity="0"/>
<stop offset="0.197" stop-color="#3A1003" stop-opacity="0.29"/>
<stop offset="0.394" stop-color="#6D1E07" stop-opacity="0.541"/>
<stop offset="0.579" stop-color="#942A09" stop-opacity="0.741"/>
<stop offset="0.747" stop-color="#B1320B" stop-opacity="0.882"/>
<stop offset="0.893" stop-color="#C2370C" stop-opacity="0.969"/>
<stop offset="1" stop-color="#C9390D"/>
</linearGradient>
</defs>
</svg>
