<svg width="42" height="25" viewBox="0 0 42 25" fill="none" xmlns="http://www.w3.org/2000/svg">
<path d="M11.9379 0.574498C14.2633 0.558454 16.541 1.23325 18.4822 2.51346C20.4235 3.79368 21.9409 5.62167 22.8419 7.76542C23.7429 9.90916 23.987 12.2718 23.5432 14.5545C23.0994 16.8371 21.9877 18.9367 20.3491 20.5867C18.7105 22.2367 16.6188 23.363 14.3393 23.8225C12.0598 24.2821 9.69504 24.0544 7.54511 23.1682C5.39518 22.2821 3.55688 20.7774 2.26325 18.845C0.969627 16.9127 0.279055 14.6396 0.278999 12.3142C0.268372 9.21138 1.49073 6.23123 3.67719 4.02958C5.86365 1.82792 8.83507 0.585353 11.9379 0.574498ZM30.557 1.26249C33.777 1.26249 36.3869 6.20924 36.3869 12.3142C36.3869 18.4142 33.777 23.3655 30.557 23.3655C27.337 23.3655 24.728 18.4162 24.728 12.3142C24.728 6.21224 27.337 1.26249 30.557 1.26249ZM39.5679 2.41337C40.6999 2.41337 41.619 6.84627 41.619 12.3133C41.619 17.7803 40.7009 22.2132 39.5679 22.2132C38.4349 22.2132 37.5179 17.7803 37.5179 12.3133C37.5179 6.84627 38.4359 2.41337 39.5679 2.41337Z" fill="#ECB55C"/>
</svg>
