<svg width="69" height="69" viewBox="0 0 69 69" fill="none" xmlns="http://www.w3.org/2000/svg">
<path d="M56.8289 0.0898895H12.8869C9.89036 0.0976298 7.00518 1.22623 4.79867 3.25374C2.59216 5.28125 1.22409 8.06094 0.963465 11.0462C0.70284 14.0314 1.56857 17.0061 3.39035 19.3853C5.21212 21.7645 7.85806 23.376 10.8079 23.9029V57.9239C10.809 60.6309 11.8849 63.2267 13.799 65.1409C15.7132 67.055 18.309 68.1308 21.016 68.1319H48.7159C51.4182 68.1298 54.0092 67.0554 55.9201 65.1447C57.831 63.234 58.9055 60.6432 58.9079 57.9409V23.9009C61.8578 23.374 64.5039 21.7625 66.3256 19.3833C68.1474 17.0041 69.0132 14.0294 68.7525 11.0442C68.4919 8.05894 67.1238 5.27925 64.9173 3.25174C62.7108 1.22423 59.8255 0.0956309 56.8289 0.0878906V0.0898895ZM45.4539 51.1299L36.654 59.9359C36.4189 60.1715 36.1396 60.3583 35.8322 60.4859C35.5248 60.6134 35.1953 60.679 34.8625 60.679C34.5297 60.679 34.2001 60.6134 33.8927 60.4859C33.5853 60.3583 33.3061 60.1715 33.071 59.9359L24.266 51.1299C23.8053 50.6518 23.5507 50.012 23.5568 49.3481C23.563 48.6842 23.8295 48.0493 24.2989 47.5798C24.7684 47.1104 25.4033 46.8439 26.0672 46.8378C26.7311 46.8316 27.3709 47.0862 27.849 47.5469L32.328 52.0259V36.4429C32.328 35.7706 32.595 35.1258 33.0704 34.6504C33.5458 34.175 34.1907 33.9079 34.863 33.9079C35.5353 33.9079 36.1801 34.175 36.6555 34.6504C37.1309 35.1258 37.3979 35.7706 37.3979 36.4429V52.0259L41.8769 47.5469C42.3521 47.0719 42.9965 46.8051 43.6683 46.8052C44.3401 46.8053 44.9844 47.0722 45.4594 47.5474C45.9344 48.0225 46.2012 48.6669 46.2011 49.3387C46.201 50.0106 45.9341 50.6549 45.459 51.1299H45.4539ZM27.219 24.2749C27.2184 23.9418 27.2836 23.612 27.4109 23.3042C27.5381 22.9964 27.7248 22.7167 27.9603 22.4812C28.1958 22.2457 28.4755 22.059 28.7833 21.9318C29.0911 21.8046 29.4209 21.7394 29.754 21.7399H39.9449C40.6172 21.7399 41.2621 22.007 41.7375 22.4824C42.2129 22.9578 42.4799 23.6026 42.4799 24.2749C42.4799 24.9472 42.2129 25.592 41.7375 26.0674C41.2621 26.5428 40.6172 26.8099 39.9449 26.8099H29.754C29.0822 26.808 28.4385 26.5404 27.9635 26.0654C27.4885 25.5903 27.2208 24.9466 27.219 24.2749ZM58.9079 18.6979V14.6239H59.1779C59.8503 14.6239 60.495 14.3568 60.9704 13.8814C61.4458 13.406 61.713 12.7612 61.713 12.0889C61.713 11.4166 61.4458 10.7718 60.9704 10.2964C60.495 9.82097 59.8503 9.55388 59.1779 9.55388H10.5379C9.8656 9.55388 9.22085 9.82097 8.74545 10.2964C8.27004 10.7718 8.00302 11.4166 8.00302 12.0889C8.00302 12.7612 8.27004 13.406 8.74545 13.8814C9.22085 14.3568 9.8656 14.6239 10.5379 14.6239H10.8079V18.7009C9.22806 18.205 7.87809 17.1596 7.00253 15.7541C6.12697 14.3486 5.78378 12.676 6.03512 11.0393C6.28647 9.40259 7.1157 7.91003 8.37264 6.83203C9.62959 5.75403 11.231 5.1619 12.8869 5.16289H56.8289C58.484 5.16346 60.0842 5.75638 61.3399 6.8344C62.5957 7.91241 63.424 9.40431 63.6753 11.0401C63.9265 12.676 63.5839 14.3477 62.7094 15.7529C61.835 17.158 60.4865 18.2037 58.9079 18.7009V18.6979Z" fill="#ECB55C"/>
</svg>
