<svg width="28" height="28" viewBox="0 0 28 28" fill="none" xmlns="http://www.w3.org/2000/svg">
<path d="M14.03 0.490235C11.3913 0.490432 8.81175 1.2731 6.6178 2.73926C4.42385 4.20542 2.71402 6.28922 1.70435 8.72717C0.694674 11.1651 0.430517 13.8477 0.945434 16.4357C1.46035 19.0238 2.73122 21.401 4.59717 23.2668C6.46312 25.1326 8.8404 26.4032 11.4285 26.9179C14.0165 27.4327 16.6991 27.1684 19.137 26.1585C21.5748 25.1487 23.6585 23.4386 25.1245 21.2445C26.5905 19.0505 27.373 16.471 27.373 13.8322C27.3732 12.08 27.0281 10.3449 26.3575 8.72607C25.687 7.10722 24.7043 5.63633 23.4652 4.39737C22.2262 3.15841 20.7551 2.17567 19.1362 1.50528C17.5173 0.834887 15.7822 0.489972 14.03 0.490235ZM14.03 24.5062C11.9189 24.5062 9.85518 23.8802 8.09985 22.7073C6.34452 21.5345 4.97635 19.8674 4.16846 17.917C3.36057 15.9666 3.1493 13.8204 3.56116 11.7498C3.97302 9.67929 4.98951 7.77736 6.4823 6.28458C7.97509 4.79179 9.87708 3.7752 11.9476 3.36334C14.0182 2.95148 16.1643 3.16284 18.1147 3.97073C20.0652 4.77862 21.7323 6.14674 22.9052 7.90207C24.078 9.6574 24.704 11.7211 24.704 13.8322C24.7037 16.6631 23.5791 19.3779 21.5774 21.3796C19.5757 23.3813 16.8609 24.506 14.03 24.5062Z" fill="white"/>
<path d="M19.3669 12.5H15.3669V8.50003C15.3669 8.32485 15.3325 8.15138 15.2655 7.98953C15.1985 7.82768 15.1002 7.68064 14.9763 7.55676C14.8524 7.43289 14.7053 7.33462 14.5435 7.26758C14.3816 7.20054 14.2081 7.16602 14.033 7.16602C13.8578 7.16602 13.6843 7.20054 13.5225 7.26758C13.3606 7.33462 13.2136 7.43289 13.0897 7.55676C12.9658 7.68064 12.8676 7.82768 12.8005 7.98953C12.7335 8.15138 12.699 8.32485 12.699 8.50003V12.5H8.69897C8.34518 12.5 8.00591 12.6406 7.75574 12.8907C7.50556 13.1409 7.36499 13.4802 7.36499 13.834C7.36499 14.1878 7.50556 14.5271 7.75574 14.7773C8.00591 15.0275 8.34518 15.168 8.69897 15.168H12.699V19.168C12.699 19.5218 12.8395 19.8611 13.0897 20.1113C13.3399 20.3615 13.6792 20.502 14.033 20.502C14.3868 20.502 14.7261 20.3615 14.9763 20.1113C15.2265 19.8611 15.3669 19.5218 15.3669 19.168V15.168H19.3669C19.7207 15.168 20.0601 15.0275 20.3103 14.7773C20.5605 14.5271 20.701 14.1878 20.701 13.834C20.701 13.4802 20.5605 13.1409 20.3103 12.8907C20.0601 12.6406 19.7207 12.5 19.3669 12.5Z" fill="#ECB55C"/>
</svg>
