<svg width="12" height="12" viewBox="0 0 12 12" fill="none" xmlns="http://www.w3.org/2000/svg">
<path d="M4.6167 1.62833L0.273804 9.15134C0.135993 9.39003 0.0634616 9.66078 0.0634766 9.9364C0.0634915 10.212 0.135967 10.4828 0.273804 10.7215C0.41164 10.9601 0.609915 11.1583 0.848633 11.2961C1.08735 11.4339 1.35817 11.5064 1.63379 11.5063H10.3197C10.5953 11.5064 10.8661 11.4339 11.1049 11.2961C11.3436 11.1583 11.5419 10.9601 11.6797 10.7215C11.8175 10.4828 11.8901 10.212 11.8901 9.9364C11.8902 9.66078 11.8176 9.39003 11.6798 9.15134L7.33679 1.62833C7.19884 1.38975 7.00055 1.19167 6.76184 1.05396C6.52313 0.91624 6.2524 0.84375 5.97681 0.84375C5.70122 0.84375 5.43036 0.91624 5.19165 1.05396C4.95294 1.19167 4.75465 1.38975 4.6167 1.62833Z" fill="#ECB55C"/>
</svg>
