<svg width="13" height="12" viewBox="0 0 13 12" fill="none" xmlns="http://www.w3.org/2000/svg">
<path opacity="0.49" d="M5.43884 10.8487L1.09583 3.32669C0.958088 3.08792 0.885702 2.81712 0.885742 2.54147C0.885782 2.26582 0.958262 1.99505 1.09607 1.75632C1.23388 1.51759 1.4321 1.31929 1.67078 1.1814C1.90946 1.0435 2.18028 0.970846 2.45593 0.970703H11.1418C11.4176 0.970542 11.6886 1.04302 11.9275 1.18085C12.1663 1.31867 12.3647 1.51697 12.5026 1.7558C12.6404 1.99463 12.7129 2.26558 12.7128 2.54135C12.7127 2.81712 12.6399 3.08797 12.5018 3.32669L8.15894 10.8487C8.02118 11.0875 7.82297 11.2859 7.58423 11.4238C7.34549 11.5617 7.07454 11.6343 6.79883 11.6343C6.52312 11.6343 6.25229 11.5617 6.01355 11.4238C5.77481 11.2859 5.57659 11.0875 5.43884 10.8487Z" fill="white"/>
</svg>
