<svg width="24" height="17" viewBox="0 0 24 17" fill="none" xmlns="http://www.w3.org/2000/svg">
<path d="M11.5871 16.2899C11.2192 16.2899 10.8557 16.2087 10.5228 16.0521C10.1898 15.8955 9.89566 15.6674 9.66107 15.3839L0.727108 4.58392C0.51152 4.33185 0.34821 4.03942 0.246762 3.72363C0.145313 3.40784 0.107717 3.07501 0.136166 2.74455C0.164616 2.41408 0.258483 2.0926 0.412411 1.79879C0.566339 1.50499 0.777276 1.24474 1.03277 1.03323C1.28827 0.821719 1.58331 0.663174 1.90069 0.566813C2.21807 0.470452 2.55144 0.438209 2.88141 0.471964C3.21137 0.50572 3.53127 0.604793 3.82257 0.763423C4.11386 0.922052 4.37068 1.13707 4.57806 1.39593L11.5871 9.86492L18.596 1.39593C18.8034 1.13707 19.0602 0.922052 19.3515 0.763423C19.6428 0.604793 19.9628 0.50572 20.2928 0.471964C20.6227 0.438209 20.9561 0.470452 21.2735 0.566813C21.5909 0.663174 21.8859 0.821719 22.1414 1.03323C22.3969 1.24474 22.6077 1.50499 22.7617 1.79879C22.9156 2.0926 23.0096 2.41408 23.038 2.74455C23.0665 3.07501 23.0289 3.40784 22.9274 3.72363C22.826 4.03942 22.6627 4.33185 22.4471 4.58392L13.513 15.3839C13.2784 15.6674 12.9842 15.8955 12.6513 16.0521C12.3184 16.2087 11.955 16.2899 11.5871 16.2899Z" fill="#ECB55C"/>
</svg>
