<svg width="205" height="205" viewBox="0 0 205 205" fill="none" xmlns="http://www.w3.org/2000/svg">
<path d="M204.131 0.400391H0.390015V204.141H204.131V0.400391Z" fill="white"/>
<path d="M77.941 18.6523H18.913V77.6793H77.941V18.6523ZM68.926 68.6654H27.926V27.6654H68.926V68.6654Z" fill="#260303"/>
<path d="M61.295 35.3066H35.569V61.0326H61.295V35.3066Z" fill="#260303"/>
<path d="M18.913 185.891H77.941V126.854H18.913V185.891ZM27.928 135.878H68.928V176.866H27.928V135.878Z" fill="#260303"/>
<path d="M61.295 143.51H35.569V169.236H61.295V143.51Z" fill="#260303"/>
<path d="M126.571 18.6523V77.6793H185.609V18.6523H126.571ZM176.594 68.6654H135.594V27.6654H176.594V68.6654Z" fill="#260303"/>
<path d="M168.953 35.3066H143.227V61.0326H168.953V35.3066Z" fill="#260303"/>
<path d="M35.565 119.043H43.8V94.3374H85.819V85.3203H18.913V94.3374H35.565V102.272H18.913V110.027H35.565V119.043Z" fill="#260303"/>
<path d="M85.819 102.27H52.366V119.042H85.819V102.27Z" fill="#260303"/>
<path d="M160.84 102.27H93.934V110.025H160.84V102.27Z" fill="#260303"/>
<path d="M176.59 110.792H168.9V118.771H176.595V135.871H185.612V102.271H176.595L176.59 110.792Z" fill="#260303"/>
<path d="M168.955 143.509V152.225H176.59V169.237H152.184V185.888H185.607V143.508H168.956L168.955 143.509Z" fill="#260303"/>
<path d="M93.934 126.855H85.819V185.886H93.934V126.855Z" fill="#260303"/>
<path d="M111.007 176.871H102.23V185.647H111.007V176.871Z" fill="#260303"/>
<path d="M127.236 176.871H118.46V185.647H127.236V176.871Z" fill="#260303"/>
<path d="M143.648 176.871H134.871V185.647H143.648V176.871Z" fill="#260303"/>
<path d="M119.062 126.855H102.23V152.223H119.062V126.855Z" fill="#260303"/>
<path d="M127.237 126.856H135.443V135.873H127.237V152.284H135.443V160.039H102.23V169.239H143.648V119.045H127.237V126.856Z" fill="#260303"/>
<path d="M160.299 119.043H152.184V160.04H160.299V119.043Z" fill="#260303"/>
<path d="M185.607 85.3184H160.299V94.3354H185.607V85.3184Z" fill="#260303"/>
<path d="M118.941 26.8281H110.045V51.8351H118.941V26.8281Z" fill="#260303"/>
<path d="M118.941 59.7695H110.045V77.6835H118.941V59.7695Z" fill="#260303"/>
<path d="M93.934 51.8348H85.819V68.7269H93.934V93.5538H152.184V85.3179H102.35V27.6699H85.278V35.3049H93.934V51.8348Z" fill="#260303"/>
</svg>
