<svg width="29" height="18" viewBox="0 0 29 18" fill="none" xmlns="http://www.w3.org/2000/svg">
<path d="M18.6851 16.8989C18.5596 16.7737 18.4601 16.6251 18.3922 16.4614C18.3243 16.2977 18.2893 16.122 18.2893 15.9448C18.2893 15.7676 18.3243 15.5924 18.3922 15.4287C18.4601 15.265 18.5596 15.1164 18.6851 14.9912L23.585 10.0908H1.64197C1.28393 10.0908 0.940552 9.94897 0.687378 9.6958C0.434204 9.44263 0.291992 9.09925 0.291992 8.74121C0.291992 8.38317 0.434204 8.0398 0.687378 7.78662C0.940552 7.53345 1.28393 7.39111 1.64197 7.39111H23.582L18.689 2.49707C18.5636 2.37166 18.4641 2.22294 18.3962 2.05908C18.3284 1.89522 18.2935 1.71935 18.2935 1.54199C18.2935 1.36463 18.3284 1.18925 18.3962 1.02539C18.4641 0.861531 18.5636 0.712326 18.689 0.586914C18.8144 0.461502 18.9633 0.362306 19.1272 0.294434C19.2911 0.226561 19.4667 0.191406 19.644 0.191406C19.8214 0.191406 19.997 0.226561 20.1609 0.294434C20.3247 0.362306 20.4736 0.461502 20.599 0.586914L27.799 7.78711C28.0517 8.04006 28.1937 8.38313 28.1937 8.74072C28.1937 9.09831 28.0517 9.44089 27.799 9.69385L20.599 16.894C20.3457 17.1472 20.0022 17.2896 19.644 17.2896C19.2859 17.2896 18.9423 17.1472 18.689 16.894L18.6851 16.8989Z" fill="#FAFAFF"/>
</svg>
