<svg width="258" height="25" viewBox="0 0 258 25" fill="none" xmlns="http://www.w3.org/2000/svg">
<path d="M1.33008 22.2313H6.83008L9.85315 20.4703L12.3271 22.2313H21.3971L26.3212 18.3182L28.8212 22.2313H44.7621L48.0621 18.3182H59.8801L62.6282 22.2313L70.0491 16.7533L74.4491 19.4922L79.9491 18.5143L81.3231 16.7533V10.2993L91.2172 4.42926L98.6381 7.16827L97.3622 11.8683L102.211 19.3033H128.046L134.646 23.4123L142.891 13.9233L152.236 23.4123V18.3253L159.657 13.9253L168.727 19.5013V10.3013L175.598 6.58429L178.346 10.8843L194.012 5.40625L196.212 10.6893L208.03 7.95026L215.451 15.7762L217.651 9.71124L227.27 9.12427L222.598 3.25427L228.919 0.90625L241.012 4.62329L245.684 3.2533L256.678 7.16626" stroke="#6BE84D" stroke-width="1.659" stroke-linecap="round" stroke-linejoin="round"/>
</svg>
