<svg width="21" height="22" viewBox="0 0 21 22" fill="none" xmlns="http://www.w3.org/2000/svg">
<path d="M19.1811 21.3351C18.7988 21.1858 18.4676 20.9296 18.2271 20.5971C17.2644 19.6011 16.3041 18.6027 15.3461 17.6021C14.8461 17.0851 14.3531 16.5701 13.8631 16.0481C13.8465 16.0219 13.8242 15.9997 13.7979 15.9831C13.7716 15.9666 13.742 15.9561 13.7111 15.9525C13.6803 15.9489 13.649 15.9522 13.6196 15.9621C13.5902 15.9721 13.5634 15.9885 13.5411 16.0101C12.5357 16.6948 11.3865 17.1396 10.1821 17.3101C8.59073 17.5564 6.96206 17.3228 5.50409 16.6391C3.90065 15.9103 2.57205 14.6882 1.7121 13.1511C1.05312 12.0023 0.687341 10.7089 0.647096 9.38509C0.587472 7.94038 0.91182 6.50565 1.5871 5.22707C2.26234 3.93219 3.26801 2.83892 4.50211 2.0581C6.15624 1.00624 8.12884 0.572679 10.0716 0.833978C12.0144 1.09528 13.8023 2.03461 15.1197 3.48614C16.4372 4.93767 17.1993 6.80802 17.2717 8.76693C17.344 10.7258 16.7219 12.6473 15.5151 14.1921C15.3451 14.4131 15.3431 14.4101 15.5311 14.6061C17.0581 16.1931 18.5681 17.7961 20.1181 19.3591C20.2754 19.4934 20.3937 19.6676 20.4605 19.8633C20.5272 20.0591 20.5401 20.2692 20.4976 20.4717C20.4552 20.6741 20.359 20.8614 20.2192 21.0138C20.0794 21.1663 19.9011 21.2783 19.7031 21.3381L19.1811 21.3351ZM8.9541 15.1811C10.1626 15.1829 11.3446 14.8262 12.3503 14.1561C13.3561 13.486 14.1405 12.5326 14.6043 11.4166C15.0681 10.3006 15.1905 9.0721 14.956 7.88653C14.7214 6.70096 14.1405 5.61162 13.2867 4.75628C12.4329 3.90094 11.3446 3.31806 10.1594 3.08138C8.97428 2.84471 7.74559 2.96489 6.62876 3.42669C5.51192 3.88849 4.55716 4.67116 3.88526 5.67571C3.21335 6.68026 2.85449 7.86155 2.8541 9.07009C2.85356 10.6891 3.49573 12.2421 4.6395 13.3879C5.78327 14.5337 7.33511 15.1787 8.9541 15.1811Z" fill="white"/>
</svg>
