<svg width="30" height="33" viewBox="0 0 30 33" fill="none" xmlns="http://www.w3.org/2000/svg">
<path d="M28.121 20.2809L27.48 19.9099C26.9234 19.5889 26.4612 19.1269 26.1398 18.5706C25.8184 18.0142 25.6492 17.3829 25.6492 16.7404C25.6492 16.0979 25.8184 15.4667 26.1398 14.9103C26.4612 14.3539 26.9234 13.892 27.48 13.5709L28.121 13.2C28.3987 13.0398 28.6421 12.8265 28.8373 12.5722C29.0325 12.3179 29.1757 12.0277 29.2586 11.718C29.3415 11.4084 29.3626 11.0854 29.3206 10.7676C29.2787 10.4498 29.1744 10.1434 29.014 9.86591L27.794 7.75293C27.4704 7.19254 26.9375 6.78362 26.3124 6.61615C25.6873 6.44868 25.0214 6.53638 24.461 6.85992L23.819 7.2309C23.2625 7.55182 22.6314 7.72069 21.989 7.72052C21.3466 7.72035 20.7156 7.55119 20.1593 7.22998C19.603 6.90877 19.141 6.44682 18.8197 5.89056C18.4985 5.3343 18.3292 4.70329 18.329 4.06091V3.31891C18.329 2.9984 18.2658 2.68105 18.1431 2.38495C18.0204 2.08885 17.8406 1.81979 17.6139 1.5932C17.3873 1.36661 17.1182 1.18695 16.822 1.06439C16.5259 0.94183 16.2085 0.878775 15.888 0.878906H13.448C13.1275 0.878775 12.8102 0.941817 12.5141 1.06439C12.218 1.18697 11.9489 1.36666 11.7223 1.59326C11.4957 1.81986 11.316 2.08892 11.1934 2.38501C11.0709 2.6811 11.0078 2.99845 11.008 3.31891V4.06091C11.0081 4.70355 10.8391 5.3349 10.5178 5.89148C10.1966 6.44806 9.73441 6.91026 9.17786 7.23157C8.62131 7.55287 7.98997 7.72197 7.34733 7.72186C6.70469 7.72175 6.0734 7.55239 5.51696 7.2309L4.88096 6.85992C4.32033 6.53661 3.6543 6.44908 3.02916 6.61652C2.40403 6.78396 1.87092 7.19268 1.54696 7.75293L0.326955 9.86591C0.00336802 10.4265 -0.0843417 11.0926 0.0831198 11.7178C0.250581 12.343 0.659508 12.8762 1.21996 13.2L1.86196 13.5709C2.41828 13.8922 2.88024 14.3542 3.20142 14.9106C3.5226 15.4669 3.69169 16.098 3.69169 16.7404C3.69169 17.3828 3.5226 18.014 3.20142 18.5703C2.88024 19.1267 2.41828 19.5887 1.86196 19.9099L1.21996 20.2809C0.659508 20.6047 0.250581 21.1378 0.0831198 21.763C-0.0843417 22.3882 0.00336802 23.0544 0.326955 23.6149L1.54696 25.7279C1.70718 26.0055 1.92053 26.2488 2.17481 26.444C2.42909 26.6391 2.71934 26.7822 3.02895 26.8652C3.33856 26.9481 3.66148 26.9692 3.97925 26.9273C4.29703 26.8854 4.60343 26.7813 4.88096 26.6209L5.52196 26.2499C6.07845 25.9288 6.70967 25.7597 7.35219 25.7597C7.99472 25.7597 8.62591 25.9289 9.18236 26.2502C9.73881 26.5714 10.2009 27.0334 10.5222 27.5898C10.8436 28.1462 11.0128 28.7774 11.013 29.4199V30.1619C11.0128 30.4824 11.0758 30.7997 11.1984 31.0958C11.321 31.3919 11.5007 31.661 11.7273 31.8876C11.9539 32.1142 12.223 32.2939 12.519 32.4164C12.8151 32.539 13.1325 32.6021 13.453 32.6019H15.8929C16.2135 32.6021 16.5309 32.5391 16.827 32.4165C17.1232 32.2939 17.3923 32.1142 17.6189 31.8876C17.8456 31.661 18.0254 31.392 18.1481 31.0959C18.2708 30.7998 18.334 30.4824 18.334 30.1619V29.4199C18.3339 28.7774 18.503 28.1462 18.8242 27.5898C19.1454 27.0333 19.6074 26.5713 20.1638 26.25C20.7202 25.9287 21.3514 25.7596 21.9939 25.7596C22.6364 25.7596 23.2675 25.9287 23.8239 26.2499L24.466 26.6209C24.7434 26.7812 25.0497 26.8854 25.3674 26.9272C25.6851 26.9691 26.008 26.948 26.3175 26.8651C26.627 26.7821 26.9172 26.639 27.1714 26.4439C27.4256 26.2488 27.6388 26.0055 27.799 25.7279L29.019 23.6149C29.1791 23.3371 29.2829 23.0304 29.3245 22.7125C29.366 22.3945 29.3445 22.0714 29.2611 21.7618C29.1777 21.4521 29.034 21.162 28.8384 20.9079C28.6428 20.6538 28.399 20.4408 28.121 20.2809ZM14.668 21.6209C13.7028 21.6207 12.7594 21.3344 11.9571 20.798C11.1547 20.2617 10.5293 19.4994 10.1601 18.6077C9.79093 17.716 9.69444 16.7348 9.88285 15.7883C10.0713 14.8417 10.5361 13.9723 11.2186 13.2899C11.9012 12.6075 12.7707 12.1428 13.7173 11.9546C14.6639 11.7664 15.645 11.8631 16.5367 12.2325C17.4283 12.6019 18.1904 13.2274 18.7266 14.0298C19.2628 14.8323 19.549 15.7758 19.549 16.7409C19.549 18.0345 19.0354 19.2751 18.1211 20.1902C17.2067 21.1052 15.9665 21.6199 14.6729 21.6209H14.668Z" fill="white"/>
</svg>
