<svg width="56" height="56" viewBox="0 0 56 56" fill="none" xmlns="http://www.w3.org/2000/svg">
<path d="M27.835 54.7047C42.6268 54.7047 54.618 42.7135 54.618 27.9217C54.618 13.1298 42.6268 1.13867 27.835 1.13867C13.0432 1.13867 1.052 13.1298 1.052 27.9217C1.052 42.7135 13.0432 54.7047 27.835 54.7047Z" stroke="#ECB55C" stroke-miterlimit="10"/>
<path fill-rule="evenodd" clip-rule="evenodd" d="M30.261 20.6418C30.261 19.5047 30.6604 18.4037 31.3894 17.531C32.1184 16.6583 33.1307 16.0692 34.2496 15.8667C35.3686 15.6641 36.5231 15.8609 37.5117 16.4227C38.5004 16.9845 39.2604 17.8757 39.6591 18.9407C40.0577 20.0056 40.0697 21.1768 39.693 22.2497C39.3163 23.3227 38.5747 24.2293 37.5978 24.8113C36.6209 25.3933 35.4707 25.6137 34.3478 25.4342C33.2249 25.2547 32.2007 24.6864 31.454 23.8288L25.302 26.9039C25.4448 27.5741 25.4448 28.2667 25.302 28.9369L31.454 32.0129C31.454 32.0129 33.654 30.3469 35.113 30.3469C36.1152 30.3477 37.0925 30.6592 37.9104 31.2383C38.7283 31.8174 39.3466 32.6357 39.6803 33.5807C40.014 34.5257 40.0467 35.5508 39.7738 36.5151C39.5009 37.4794 38.9358 38.3354 38.1564 38.9653C37.3769 39.5953 36.4215 39.9683 35.4214 40.0328C34.4213 40.0974 33.4257 39.8504 32.5718 39.3259C31.7178 38.8014 31.0474 38.0252 30.6527 37.104C30.2581 36.1828 30.1586 35.1619 30.368 34.1819L24.2159 31.1069C23.5671 31.8522 22.7061 32.3816 21.7482 32.6243C20.7902 32.867 19.7811 32.8114 18.8556 32.465C17.9301 32.1185 17.1326 31.4978 16.5695 30.6858C16.0064 29.8737 15.7046 28.9091 15.7046 27.9209C15.7046 26.9327 16.0064 25.968 16.5695 25.156C17.1326 24.3439 17.9301 23.7232 18.8556 23.3768C19.7811 23.0304 20.7902 22.9748 21.7482 23.2175C22.7061 23.4602 23.5671 23.9896 24.2159 24.7349L30.368 21.6589C30.2967 21.3246 30.2608 20.9837 30.261 20.6418Z" fill="#ECB55C"/>
</svg>
