<svg width="65" height="65" viewBox="0 0 65 65" fill="none" xmlns="http://www.w3.org/2000/svg">
<path d="M32.4279 64.8803C50.1176 64.8803 64.4579 50.54 64.4579 32.8503C64.4579 15.1606 50.1176 0.820312 32.4279 0.820312C14.7383 0.820312 0.397949 15.1606 0.397949 32.8503C0.397949 50.54 14.7383 64.8803 32.4279 64.8803Z" fill="white"/>
<path d="M32.5421 56.2815C45.0641 56.2815 55.2151 46.1305 55.2151 33.6085C55.2151 21.0866 45.0641 10.9355 32.5421 10.9355C20.0202 10.9355 9.86914 21.0866 9.86914 33.6085C9.86914 46.1305 20.0202 56.2815 32.5421 56.2815Z" fill="white"/>
<path fill-rule="evenodd" clip-rule="evenodd" d="M31.0612 10.7874C30.4044 10.8147 29.7495 10.8765 29.0992 10.9724C28.9159 11.0125 28.7306 11.0432 28.5442 11.0644C28.2852 11.1024 27.9152 11.1764 27.7302 11.2134C27.5452 11.2504 27.2482 11.3244 27.0452 11.3614C26.8602 11.3984 26.5642 11.4724 26.4152 11.5094C26.2662 11.5464 25.9532 11.6384 25.7492 11.6944C25.3602 11.8054 24.3052 12.1564 24.1392 12.2494C24.0918 12.2684 24.042 12.2809 23.9912 12.2864C23.8878 12.3134 23.7873 12.3506 23.6912 12.3974C23.3392 12.5454 23.1722 12.6194 22.9912 12.6974C22.8252 12.7714 21.4552 13.4194 21.2332 13.5494C21.1042 13.6234 21.0332 13.5494 22.7882 15.3494C23.2692 15.8494 23.8802 16.4784 24.1572 16.7564C24.7132 17.3484 24.7132 17.3484 24.8792 17.2924C25.1792 17.1634 26.8972 16.6634 27.3042 16.5704C28.8623 16.2378 30.4492 16.0583 32.0422 16.0344C33.6304 16.0298 35.216 16.166 36.7802 16.4414C37.5802 16.5894 37.6872 16.6264 37.8722 16.6634C37.9652 16.6824 38.2792 16.7744 38.5572 16.8484C38.8352 16.9224 39.3162 17.0484 39.6122 17.1484C39.9082 17.2484 40.1672 17.3334 40.1672 17.3334C40.1672 17.3334 40.3892 17.0744 40.6672 16.7414C40.9452 16.4084 41.2412 16.0564 41.3332 15.9414C41.4252 15.8264 41.6332 15.6084 41.7592 15.4414C42.1102 15.0344 42.9252 14.1464 43.2392 13.8314C43.3423 13.7469 43.4303 13.6454 43.4992 13.5314C42.8673 13.1499 42.2046 12.8217 41.5182 12.5504C41.3172 12.4443 41.1066 12.3575 40.8892 12.2914C40.8357 12.287 40.7846 12.2679 40.7412 12.2364C39.5243 11.7843 38.2733 11.4299 37.0002 11.1764C35.0422 10.8124 33.048 10.6818 31.0592 10.7874M51.2702 20.4484C51.2332 20.5594 51.1222 21.0034 51.0112 21.4484C50.7892 22.3364 50.6222 22.9484 50.4002 23.7064C50.3262 23.9834 50.2002 24.3724 50.1412 24.5574C50.0822 24.7424 49.9002 25.3574 49.7152 25.8714L49.4012 26.8344L49.4932 27.0194C49.5492 27.1304 49.7932 27.5744 50.0122 28.0374C50.7667 29.4348 51.3447 30.9205 51.7332 32.4604C51.8072 32.7604 51.8812 33.0714 51.8992 33.1824C52.2827 34.8576 52.4693 36.5719 52.4552 38.2904C52.4663 38.7108 52.4476 39.1315 52.3992 39.5494C52.3322 39.9194 52.2393 40.2843 52.1212 40.6414C52.0472 40.8414 51.9732 41.0664 51.9362 41.1594C51.6308 41.8984 51.2526 42.6053 50.8072 43.2694C50.3028 44.0435 49.7266 44.7683 49.0862 45.4344C48.8642 45.6754 48.6232 45.9344 48.5862 45.9904C47.8112 46.745 46.9892 47.4497 46.1252 48.1004C44.4224 49.3404 42.592 50.3951 40.6652 51.2463C40.0172 51.5243 38.5362 52.0974 38.4252 52.0974C38.3569 52.1173 38.29 52.142 38.2252 52.1714C37.9254 52.2915 37.6156 52.3846 37.2992 52.4494C37.2481 52.4531 37.198 52.4656 37.1512 52.4864C37.0772 52.5234 36.6892 52.6164 35.7822 52.8194C35.5822 52.8564 35.2632 52.9304 35.0972 52.9674C34.939 53.0046 34.7782 53.0294 34.6162 53.0414C34.5232 53.0414 34.2082 53.0784 33.9312 53.1154C32.1288 53.3013 30.3074 53.1445 28.5632 52.6534C28.1562 52.5424 27.1382 52.2273 27.0272 52.1903C26.9722 52.1713 26.8052 52.1164 26.6762 52.0604C24.8513 51.3898 23.0864 50.5662 21.4002 49.5984C21.3313 49.5469 21.2568 49.5033 21.1782 49.4684C21.0345 49.3948 20.8979 49.3081 20.7702 49.2094C20.5702 49.0804 20.3822 48.9504 20.3822 48.9504C19.4814 48.3871 18.6161 47.7689 17.7912 47.0994C16.586 46.1599 15.4802 45.0993 14.4912 43.9344C14.2095 43.6067 13.9499 43.2605 13.7142 42.8984C13.7142 42.8794 13.6032 42.7314 13.4922 42.5464C13.3929 42.4126 13.3062 42.27 13.2332 42.1204C13.1993 42.0518 13.1619 41.9851 13.1212 41.9204C12.2332 40.6204 12.0302 39.3104 12.3262 36.4044C12.441 35.3079 12.6264 34.22 12.8812 33.1474C13.1592 32.1664 13.4182 31.2784 13.4922 31.1114C13.5102 31.0554 13.5662 30.8894 13.6212 30.7414C13.7322 30.3894 14.1952 29.2054 14.3992 28.7414C14.4912 28.5564 14.6992 28.0934 14.8612 27.7414C15.2502 26.8904 15.2502 26.8534 14.8802 25.8354C14.4732 24.7624 14.1952 23.8554 14.0472 23.2994C14.0282 23.2254 13.9542 22.9664 13.8992 22.7444C13.7111 22.0988 13.5566 21.4439 13.4362 20.7824C13.3622 20.4124 13.3812 20.4124 12.9362 21.0604C12.2437 22.1303 11.6314 23.25 11.1042 24.4104C11.0492 24.5404 10.9562 24.7804 10.8632 24.9474C10.7946 25.0963 10.7392 25.2509 10.6972 25.4094C10.6862 25.4757 10.6609 25.5388 10.6232 25.5944C10.6067 25.6083 10.5933 25.6254 10.5837 25.6446C10.5741 25.6639 10.5685 25.6849 10.5672 25.7064C10.5521 25.789 10.5272 25.8696 10.4932 25.9464C10.1533 26.8881 9.88133 27.8528 9.6792 28.8334C9.39258 30.2482 9.22532 31.6846 9.1792 33.1274C9.17876 34.5484 9.30256 35.9669 9.5492 37.3664C9.6792 38.0884 9.8832 38.9574 9.9942 39.3834C10.1648 40.0661 10.3875 40.7347 10.6602 41.3834C10.6934 41.4542 10.7182 41.5287 10.7342 41.6054C10.7386 41.6588 10.7576 41.71 10.7892 41.7534C10.8082 41.8094 10.9382 42.0683 11.0492 42.3454C12.371 45.3574 14.3133 48.0569 16.7492 50.2674C17.5764 51.0181 18.4545 51.7108 19.3772 52.3404C19.6922 52.5624 20.4322 53.0254 21.0062 53.3404C21.3392 53.5254 23.0602 54.3774 23.0972 54.3774C23.3203 54.4525 23.537 54.5455 23.7452 54.6554C24.0452 54.7844 25.0782 55.1364 25.9852 55.4134C30.094 56.5485 34.4303 56.574 38.5522 55.4874C38.7742 55.4324 39.0332 55.3584 39.1262 55.3394C39.2294 55.3203 39.3301 55.2894 39.4262 55.2474C39.5002 55.2104 39.7262 55.1544 39.9442 55.0804C40.0952 55.0406 40.2435 54.9912 40.3882 54.9324C40.4252 54.9144 40.5732 54.8584 40.7212 54.8034C40.8512 54.7474 41.0362 54.6924 41.1292 54.6554C41.2032 54.6174 41.4802 54.5064 41.7392 54.3954C44.1431 53.3641 46.3576 51.9381 48.2912 50.1764C49.064 49.4806 49.7877 48.7321 50.4572 47.9364C50.6232 47.7364 51.3822 46.7514 51.7712 46.1964C53.2347 44.0312 54.3233 41.635 54.9912 39.1084C55.7919 35.8406 55.8867 32.4397 55.2692 29.1324C55.2502 29.0214 55.1762 28.7064 55.1212 28.4324C55.0662 28.1584 54.9732 27.8214 54.9362 27.7104C54.6212 26.6554 54.5472 26.3964 54.4732 26.2304C54.4362 26.1194 54.3622 25.9524 54.3252 25.8604C53.916 24.777 53.4401 23.7199 52.9002 22.6954C52.4981 21.9761 52.0595 21.2779 51.5862 20.6034L51.3452 20.2894L51.2712 20.4554M44.4232 29.7654C44.5149 29.7834 44.6094 29.7834 44.7012 29.7654C44.7752 29.7464 44.7192 29.7464 44.5712 29.7464C44.4042 29.7464 44.3492 29.7464 44.4232 29.7654ZM38.7782 34.7994C38.8384 34.8183 38.903 34.8183 38.9632 34.7994C39.0192 34.7814 38.9632 34.7814 38.8712 34.7814C38.7792 34.7814 38.7222 34.7814 38.7782 34.7994Z" fill="#F30504"/>
<path fill-rule="evenodd" clip-rule="evenodd" d="M13.885 9.47376C12.997 10.0478 12.423 13.0087 12.685 15.4887C12.704 15.7477 12.759 16.2288 12.778 16.5808C12.8538 17.5681 12.9836 18.5506 13.167 19.5237C13.204 19.7087 13.259 20.0237 13.278 20.2087C13.2829 20.3291 13.3079 20.4477 13.352 20.5598C13.3935 20.6561 13.4243 20.7567 13.444 20.8597C13.574 21.5267 13.722 22.1187 13.907 22.8037C13.962 23.0257 14.036 23.2657 14.055 23.3587C14.203 23.9327 14.499 24.8208 14.888 25.8948C15.258 26.9128 15.258 26.9498 14.869 27.8008C14.703 28.1528 14.499 28.6008 14.407 28.8008C14.207 29.2458 13.74 30.4488 13.629 30.8008C13.6011 30.9288 13.5577 31.0531 13.5 31.1708C13.426 31.3378 13.167 32.2448 12.889 33.2068C12.796 33.5068 12.589 34.6328 12.463 35.4648C12.352 36.1648 12.163 38.1307 12.204 38.1647C12.3348 38.1737 12.4662 38.1613 12.593 38.1278C13.3459 38.0124 14.1075 37.9629 14.869 37.9797C15.8467 37.9514 16.8238 38.0523 17.775 38.2798C19.8832 38.831 21.8024 39.9439 23.328 41.4998C23.642 41.8148 23.605 41.8148 23.79 41.4448C25.234 38.2608 26.937 36.4098 29.324 35.3918C31.0895 34.7302 33.0171 34.6334 34.84 35.1148C36.1301 35.4957 37.3143 36.1702 38.3001 37.0853C39.2859 38.0005 40.0464 39.1315 40.522 40.3897C40.614 40.5897 40.707 40.8148 40.722 40.8708C40.737 40.9268 40.833 41.1298 40.907 41.3148C40.981 41.4998 41.055 41.6847 41.055 41.7037C41.074 41.7217 41.241 41.6108 41.426 41.4258C42.5644 40.3252 43.9023 39.4519 45.368 38.8528C45.4444 38.8126 45.5253 38.7817 45.609 38.7607C45.6791 38.7466 45.7466 38.7216 45.809 38.6867C46.5743 38.4061 47.3691 38.2135 48.178 38.1128C49.5708 37.9697 50.976 38.0009 52.361 38.2058C52.4948 37.2572 52.4637 36.2927 52.269 35.3547C52.1888 34.6188 52.0588 33.8891 51.88 33.1708C51.861 33.0788 51.769 32.7457 51.713 32.4497C51.325 30.9094 50.7469 29.4234 49.992 28.0258C49.751 27.5628 49.511 27.1008 49.474 27.0078L49.381 26.8228L49.696 25.8608C49.881 25.3238 50.066 24.7318 50.122 24.5468C50.178 24.3618 50.288 23.9728 50.381 23.6948C50.621 22.9178 50.769 22.3067 50.991 21.4367C51.102 20.9927 51.214 20.5298 51.269 20.4008C51.3795 20.0304 51.4661 19.6533 51.528 19.2718C51.769 18.1058 51.88 17.3838 51.972 16.6808C52.009 16.3658 52.065 15.8808 52.102 15.6258C52.1761 14.5163 52.1761 13.4032 52.102 12.2938C52.0515 11.8397 51.9509 11.3927 51.802 10.9608C51.487 9.98076 51.136 9.40676 50.876 9.44376C50.784 9.46176 50.576 9.48076 50.451 9.49876C50.0327 9.57717 49.6188 9.67729 49.211 9.79874C47.1811 10.5411 45.3368 11.7159 43.806 13.2418C43.7342 13.3253 43.646 13.3934 43.547 13.4417C43.5278 13.4431 43.5098 13.4514 43.4962 13.465C43.4826 13.4786 43.4744 13.4966 43.473 13.5158C43.4114 13.6386 43.3229 13.7459 43.214 13.8297C42.899 14.1297 42.085 15.0148 41.733 15.4398C41.604 15.6068 41.4 15.8288 41.308 15.9398C41.216 16.0508 40.9 16.4028 40.641 16.7398C40.364 17.0728 40.141 17.3318 40.141 17.3318C40.141 17.3318 39.881 17.2578 39.585 17.1468C39.285 17.0548 38.808 16.9067 38.53 16.8467C38.253 16.7727 37.957 16.6988 37.846 16.6618C37.4872 16.5643 37.1224 16.4902 36.754 16.4398C35.1895 16.1644 33.6036 16.0282 32.015 16.0328C30.4221 16.0589 28.8354 16.2384 27.277 16.5688C26.852 16.6618 25.149 17.1617 24.853 17.2907C24.705 17.3467 24.705 17.3468 24.131 16.7548C23.872 16.4768 23.261 15.8478 22.761 15.3478C21.318 13.8668 21.096 13.6268 21.133 13.5898C21.151 13.5528 21.151 13.5708 21.133 13.5898C20.9863 13.5236 20.8541 13.4291 20.744 13.3117C19.4266 11.9567 17.9022 10.8196 16.228 9.94276C15.5267 9.50789 14.6908 9.34363 13.877 9.48075M31.312 10.7758C31.3973 10.7946 31.4857 10.7946 31.571 10.7758C31.627 10.7578 31.571 10.7578 31.423 10.7578C31.294 10.7578 31.238 10.7758 31.312 10.7758ZM23.835 25.0648C25.335 25.4718 26.426 27.5257 25.482 28.2477C24.2937 28.7138 22.9996 28.8418 21.743 28.6177C20.559 28.4517 20.392 26.7118 21.466 25.7308C21.7754 25.4331 22.1536 25.2166 22.5669 25.1004C22.9802 24.9842 23.4158 24.972 23.835 25.0648ZM41.843 25.0648C43.454 25.4898 44.286 27.3228 43.324 28.3218C42.75 28.9138 39.53 28.7658 38.938 28.1368C38.8248 28.0065 38.7425 27.8522 38.6975 27.6856C38.6525 27.519 38.6458 27.3443 38.678 27.1748C38.7056 27.0968 38.7245 27.0159 38.734 26.9338C38.83 26.5694 39.0216 26.2372 39.289 25.9717C39.5844 25.5933 39.9816 25.307 40.434 25.1464C40.8863 24.9857 41.3751 24.9574 41.843 25.0648ZM44.905 29.9988C45.0504 30.472 45.107 30.968 45.072 31.4618V32.2758L44.739 32.5908C43.9822 33.2632 43.0836 33.7564 42.11 34.0338C41.4449 34.2694 40.7652 34.4611 40.075 34.6078C39.1987 34.7894 38.3011 34.8456 37.409 34.7748L37.169 34.7378L37.206 34.4378C37.28 33.7538 37.891 33.0498 39.149 32.2378C40.3097 31.4445 41.5429 30.7628 42.832 30.2018C43.3932 29.9492 43.995 29.7989 44.609 29.7578H44.85L44.905 29.9977M21.196 29.9058C21.5589 29.9775 21.9127 30.0892 22.251 30.2387C22.825 30.4977 23.639 30.9047 24.213 31.2387C24.565 31.4387 24.972 31.6637 25.12 31.7387C26.878 32.7017 27.952 33.7198 27.952 34.4388C27.952 35.5868 22.159 34.2537 20.382 32.6997C20.0971 32.333 19.9231 31.8924 19.8804 31.4299C19.8377 30.9675 19.9281 30.5025 20.141 30.0898C20.271 29.7198 20.308 29.7198 21.196 29.9048M9.36902 30.5338C9.36902 30.6268 9.388 30.6637 9.388 30.6267C9.40598 30.5664 9.40598 30.5021 9.388 30.4417C9.369 30.3857 9.36902 30.4228 9.36902 30.5338ZM55.547 31.2008C55.547 31.3118 55.566 31.3488 55.566 31.2928C55.5843 31.2274 55.5843 31.1582 55.566 31.0928C55.566 31.0557 55.547 31.0928 55.547 31.2048M9.16602 32.7408C9.16602 32.8328 9.18402 32.8698 9.18402 32.8328C9.20298 32.7726 9.20298 32.708 9.18402 32.6477C9.18402 32.6107 9.16602 32.6478 9.16602 32.7408ZM55.659 33.4258C55.659 33.7588 55.659 33.8877 55.677 33.7257C55.696 33.5225 55.696 33.318 55.677 33.1148C55.659 32.9478 55.659 33.0958 55.659 33.4298M9.16602 34.4098C9.16602 34.5028 9.18402 34.5398 9.18402 34.5028C9.20298 34.4425 9.20298 34.378 9.18402 34.3178C9.18402 34.2808 9.16602 34.3178 9.16602 34.4098ZM55.547 35.8538C55.547 35.9648 55.566 36.0018 55.566 35.9468C55.5843 35.8813 55.5843 35.8122 55.566 35.7467C55.566 35.6917 55.547 35.7468 55.547 35.8578M52.475 38.5418C52.475 38.6708 52.494 38.7077 52.494 38.6527C52.512 38.5798 52.512 38.5037 52.494 38.4308C52.494 38.3748 52.475 38.4118 52.475 38.5418ZM16.2 45.7498L16.366 45.9168L16.533 46.0648L16.385 45.8977C16.255 45.7497 16.2 45.7128 16.2 45.7498ZM48.053 46.5088C48.1189 46.465 48.1808 46.4155 48.238 46.3608C48.238 46.3238 48.201 46.3608 48.053 46.5088ZM15.33 48.9698C15.3964 49.0444 15.4709 49.1115 15.552 49.1697C15.571 49.1697 15.497 49.0778 15.385 48.9698C15.3188 48.895 15.2443 48.8279 15.163 48.7698C15.145 48.7698 15.219 48.8618 15.33 48.9698ZM16.589 50.2288C16.6554 50.3034 16.7299 50.3704 16.811 50.4287C16.829 50.4287 16.755 50.3358 16.644 50.2288C16.5773 50.1544 16.5029 50.0874 16.422 50.0288C16.403 50.0288 16.477 50.1218 16.589 50.2288ZM47.96 50.4878C48.026 50.444 48.0879 50.3945 48.145 50.3398C48.145 50.3028 48.09 50.3398 47.96 50.4878ZM32.36 53.2828C32.4255 53.3002 32.4945 53.3002 32.56 53.2828C32.616 53.2638 32.56 53.2638 32.449 53.2638C32.338 53.2638 32.301 53.2638 32.357 53.2828M31.117 56.2998C31.1774 56.3177 31.2416 56.3177 31.302 56.2998C31.357 56.2808 31.302 56.2808 31.209 56.2808C31.116 56.2808 31.08 56.2808 31.117 56.2998Z" fill="#FBA10B"/>
<path fill-rule="evenodd" clip-rule="evenodd" d="M20.2518 29.8329C19.9304 30.4797 19.8205 31.2112 19.9378 31.9239C19.9558 32.0169 19.9928 32.1649 20.0118 32.2389C20.0668 32.5169 20.8258 33.0899 21.6958 33.5389C23.4358 34.4269 26.8778 35.1119 27.7298 34.7389L27.9698 34.6279L27.9328 34.3499C27.8588 33.7019 27.2668 33.0499 25.8788 32.1659C25.7114 32.052 25.5381 31.9468 25.3598 31.8509C25.3418 31.8509 25.0828 31.7029 24.7868 31.5369C23.843 30.9606 22.8521 30.4651 21.8248 30.0559C21.3206 29.8775 20.7857 29.801 20.2518 29.8329ZM44.0348 29.8149C42.6627 30.2075 41.3585 30.8067 40.1668 31.5919C38.0388 32.8689 37.2798 33.6279 37.1868 34.4789L37.1498 34.7569L37.7428 34.7939C40.2639 34.8625 42.7347 34.0801 44.7568 32.5729L45.0718 32.2729V31.4589C45.0997 30.9664 45.0498 30.4727 44.9238 29.9959L44.8678 29.7559H44.5168C44.3552 29.7641 44.1941 29.7825 44.0348 29.8109M30.7088 37.8989C30.0428 38.0989 29.7468 38.9909 29.9508 40.2119C30.1531 40.8005 30.4996 41.329 30.9587 41.7493C31.4177 42.1695 31.9747 42.4681 32.5788 42.6179C32.6528 42.6369 32.6708 42.7289 32.6708 43.3949V44.1539L32.5048 44.2469C32.371 44.3403 32.2577 44.4601 32.1718 44.5989C32.1169 44.6901 32.0547 44.7767 31.9858 44.8579C31.0961 44.921 30.2021 44.8838 29.3208 44.7469C28.7755 44.6682 28.2232 44.6494 27.6738 44.6909C27.6548 44.7099 27.7108 44.8019 27.7848 44.8909C28.0165 45.1568 28.1648 45.4851 28.2108 45.8349L28.3028 46.2229H28.5028C28.7248 46.2229 28.7248 46.2229 28.8728 46.7229C29.002 47.1177 29.1758 47.4965 29.3908 47.8519L29.4838 47.9629L29.5758 47.7629C29.6688 47.5779 29.6688 47.4299 29.6688 46.5419V45.5239L29.9278 45.5419C30.0758 45.5609 30.3908 45.5789 30.6498 45.6159C32.1822 45.765 33.7254 45.765 35.2578 45.6159C35.4578 45.5979 35.8138 45.5609 36.0168 45.5419L36.4058 45.5049L36.3868 46.4679C36.3868 47.3929 36.3868 47.4489 36.4978 47.6519C36.6098 47.8739 36.7208 47.9669 36.7208 47.8739C36.7368 47.7973 36.7616 47.7228 36.7948 47.6519C36.8318 47.5599 36.9608 47.2269 37.0948 46.9119L37.3168 46.3379L37.5758 46.2639L37.8348 46.1899L38.0018 45.6159C38.0938 45.3019 38.1678 44.9499 38.1868 44.8579L38.2238 44.6729H37.4828C37.1651 44.6376 36.8437 44.6689 36.5388 44.7649C36.0489 44.9193 35.5308 44.9637 35.0218 44.8949L34.2998 44.8579L34.0778 44.5579C33.9866 44.4222 33.8663 44.3085 33.7258 44.2249L33.5968 44.1879L33.6148 43.4289L33.6338 42.6709L33.8338 42.5779C35.3698 41.8559 35.8338 41.1899 35.8518 39.5979C35.8518 38.3979 35.7038 38.1179 34.9078 37.8979C33.5101 37.7859 32.1056 37.7859 30.7078 37.8979M30.8378 46.3559C30.8928 46.5779 30.9668 46.6699 31.2818 46.7999L31.5408 46.9109L31.7078 46.7259C32.0078 46.4109 32.2258 46.5039 32.5588 47.0589C32.7588 47.4109 33.0218 47.3589 33.5028 46.7999C33.7248 46.5409 33.7028 46.5589 33.9838 46.7629L34.2058 46.9299L34.3918 46.7999C34.4786 46.76 34.5533 46.698 34.6084 46.62C34.6635 46.5421 34.6971 46.4509 34.7058 46.3559L34.7428 46.1889H30.7818L30.8378 46.3559Z" fill="#060505"/>
</svg>
