<svg width="47" height="46" viewBox="0 0 47 46" fill="none" xmlns="http://www.w3.org/2000/svg">
<path d="M23.7871 45.8779C36.4316 45.8779 46.6821 35.6274 46.6821 22.9829C46.6821 10.3383 36.4316 0.0878906 23.7871 0.0878906C11.1425 0.0878906 0.89209 10.3383 0.89209 22.9829C0.89209 35.6274 11.1425 45.8779 23.7871 45.8779Z" fill="#F7D2F9"/>
<path d="M23.7881 39.0141C31.9166 39.0141 38.5061 32.4247 38.5061 24.2961C38.5061 16.1676 31.9166 9.57812 23.7881 9.57812C15.6595 9.57812 9.07007 16.1676 9.07007 24.2961C9.07007 32.4247 15.6595 39.0141 23.7881 39.0141Z" fill="#FF00FF" fill-opacity="0.15"/>
<path d="M40.2511 25.1309C39.5916 25.5894 38.8227 25.8653 38.0221 25.9309L37.9221 25.9359C37.0692 25.3183 36.0693 24.9352 35.0221 24.8248C33.6411 24.8248 32.6691 26.2058 31.8431 26.8148C30.8837 27.6509 29.6975 28.183 28.4351 28.3438C27.1591 28.3438 25.1351 27.6528 23.7901 27.6528C22.4451 27.6528 20.4211 28.3438 19.1451 28.3438C17.8825 28.1829 16.696 27.6507 15.7361 26.8148C14.9101 26.2058 13.9361 24.8248 12.5581 24.8248C11.511 24.9352 10.511 25.3183 9.65811 25.9359L9.55814 25.9309C8.75727 25.8655 7.98793 25.5895 7.32812 25.1309C7.86434 24.3017 8.676 23.6882 9.62012 23.3988C8.93115 23.003 8.36656 22.4226 7.99011 21.7228C8.74273 21.5153 9.53752 21.5153 10.2901 21.7228C6.85913 12.4848 9.69012 6.44783 9.69012 6.44783C13.9521 6.21883 19.5721 12.1928 19.5721 12.1928C22.2925 11.1569 25.2988 11.1569 28.0191 12.1928C28.0191 12.1928 33.6391 6.21883 37.9021 6.44783C37.9021 6.44783 40.7301 12.4858 37.3021 21.7228C38.0547 21.5153 38.8495 21.5153 39.6021 21.7228C39.2257 22.4226 38.6611 23.003 37.9721 23.3988C38.9167 23.6873 39.7287 24.3009 40.2641 25.1309H40.2511Z" fill="#F79D0A"/>
<path d="M21.5742 11.7935C21.6464 11.0218 21.9332 10.2856 22.4022 9.66852C22.9707 8.92472 23.7791 8.40074 24.6902 8.18555C24.7293 8.98813 24.4811 9.77838 23.9902 10.4146C24.3079 10.3094 24.6433 10.268 24.9771 10.2927C25.3108 10.3174 25.6364 10.4077 25.9352 10.5585C25.4683 11.1104 24.8604 11.5251 24.1762 11.7585C23.3145 11.8805 22.4407 11.8913 21.5762 11.7905L21.5742 11.7935Z" fill="#F79D0A"/>
<path d="M17.1 13.256C16.613 13.5119 16.1513 13.8132 15.7211 14.156C14.3306 15.3046 13.2368 16.7709 12.5321 18.431C12.0823 19.4257 11.7539 20.4708 11.554 21.544C9.78601 17.2975 9.40488 12.601 10.465 8.125C14.048 8.562 17.1 13.256 17.1 13.256Z" fill="white"/>
<path d="M15.725 14.1555C14.3339 15.3037 13.2398 16.77 12.535 18.4304C11.2889 15.7114 10.8545 12.6904 11.284 9.73047C13.884 10.6835 15.703 14.1005 15.703 14.1005L15.725 14.1555Z" fill="#F87B04"/>
<path d="M30.4722 13.256C30.9592 13.5119 31.4209 13.8132 31.8512 14.156C33.2417 15.3046 34.3354 16.7709 35.0402 18.431C35.4899 19.4257 35.8183 20.4708 36.0182 21.544C37.7863 17.2976 38.1678 12.6011 37.1082 8.125C33.5242 8.562 30.4722 13.256 30.4722 13.256Z" fill="white"/>
<path d="M31.8521 14.1555C33.2426 15.304 34.3363 16.7703 35.041 18.4304C36.2871 15.7114 36.7215 12.6904 36.2921 9.73047C33.6921 10.6835 31.873 14.1005 31.873 14.1005L31.8521 14.1555Z" fill="#F87B04"/>
<path d="M38.7361 27.4783C38.2057 27.6879 37.6178 27.7003 37.0791 27.5134C37.0791 27.5134 35.4231 34.1934 26.1451 36.8474C24.6049 37.2873 22.9723 37.2873 21.4321 36.8474C12.1541 34.1934 10.4991 27.5134 10.4991 27.5134C9.95964 27.7001 9.37118 27.6877 8.84009 27.4783C8.8899 26.8934 9.14285 26.3443 9.55508 25.9263L9.65509 25.9313C10.5079 25.3136 11.5078 24.9305 12.5551 24.8203C13.9351 24.8203 14.9071 26.2014 15.7331 26.8104C16.6928 27.646 17.8788 28.1781 19.1411 28.3394C20.4171 28.3394 22.4411 27.6483 23.7861 27.6483C25.1311 27.6483 27.1561 28.3394 28.4321 28.3394C29.6942 28.1785 30.88 27.6464 31.8391 26.8104C32.6661 26.2024 33.6391 24.8203 35.0191 24.8203C36.0663 24.9306 37.0662 25.3137 37.9191 25.9313L38.0191 25.9263C38.4323 26.3439 38.686 26.8931 38.7361 27.4783Z" fill="#FDF4EA"/>
<path d="M21.6783 20.0496C22.4328 19.5177 22.4012 18.1743 21.6078 17.049C20.8144 15.9236 19.5597 15.4425 18.8052 15.9744C18.0508 16.5063 18.0824 17.8498 18.8758 18.9751C19.6691 20.1004 20.9239 20.5815 21.6783 20.0496Z" fill="white"/>
<path d="M28.6998 18.9764C29.4932 17.8511 29.5248 16.5077 28.7704 15.9758C28.0159 15.4439 26.7612 15.925 25.9678 17.0503C25.1744 18.1756 25.1428 19.5191 25.8973 20.051C26.6517 20.5829 27.9065 20.1018 28.6998 18.9764Z" fill="white"/>
<path d="M23.4211 35.9667C22.7599 35.8894 22.1462 35.5847 21.6851 35.1047C21.3471 34.7435 21.1346 34.2831 21.0791 33.7916C21.0681 33.6846 21.0641 33.5777 21.0601 33.4697C21.9979 33.3863 22.9128 33.1332 23.7601 32.7227C24.6463 33.0606 25.5733 33.2799 26.5171 33.3746C26.5212 33.5142 26.5159 33.6539 26.5011 33.7927C26.4276 34.3978 26.1234 34.9512 25.6521 35.3376C25.3399 35.5849 24.9819 35.7679 24.5986 35.8759C24.2153 35.9838 23.8144 36.0147 23.4191 35.9667H23.4211Z" fill="#FDA3A3"/>
<path d="M20.5141 25.4655C20.5141 25.4655 20.7871 24.7825 19.7901 23.2655C19.4045 22.6667 18.8823 22.168 18.2663 21.8104C17.6504 21.4528 16.9584 21.2465 16.2471 21.2084C15.9503 21.1596 15.6461 21.1829 15.3601 21.2763C15.0741 21.3697 14.8147 21.5305 14.6039 21.7451C14.393 21.9597 14.2368 22.2218 14.1485 22.5094C14.0601 22.7969 14.0422 23.1015 14.0961 23.3975C14.0961 23.3975 14.3511 22.4685 15.8801 22.1565C16.9268 22.0299 17.983 22.2997 18.8407 22.9129C19.6984 23.526 20.2954 24.4381 20.5141 25.4695V25.4655Z" fill="white"/>
<path d="M27.062 25.4655C27.062 25.4655 26.789 24.7825 27.786 23.2655C28.1717 22.6667 28.6939 22.168 29.3098 21.8104C29.9258 21.4528 30.6178 21.2465 31.329 21.2085C31.6258 21.1596 31.93 21.1829 32.216 21.2763C32.502 21.3697 32.7613 21.5304 32.9721 21.745C33.1829 21.9597 33.339 22.2219 33.4272 22.5095C33.5154 22.797 33.5332 23.1016 33.479 23.3975C33.479 23.3975 33.224 22.4685 31.695 22.1565C30.6484 22.0299 29.5924 22.2998 28.7349 22.913C27.8774 23.5262 27.2806 24.4382 27.062 25.4695V25.4655Z" fill="white"/>
<path d="M20.5752 33.5633C20.0295 33.5276 19.4958 33.387 19.0032 33.1493C18.4802 32.9031 18.0347 32.5181 17.7152 32.0363C17.4188 31.589 17.2447 31.0718 17.2102 30.5363C17.1817 30.2968 17.1977 30.0541 17.2572 29.8203C17.2704 29.7924 17.2925 29.7696 17.3199 29.7555C17.3474 29.7414 17.3788 29.7368 17.4092 29.7424C17.4882 29.7674 17.4992 29.8174 17.5092 30.2504C17.504 30.5227 17.5377 30.7945 17.6092 31.0574C17.8564 31.792 18.3544 32.4162 19.0157 32.8204C19.6771 33.2247 20.4597 33.3833 21.2262 33.2684C22.0068 33.2175 22.7701 33.0162 23.4742 32.6753C23.5832 32.6223 23.6182 32.5963 23.6352 32.5533C23.6703 32.1877 23.677 31.82 23.6552 31.4534C23.0586 31.2411 22.4986 30.9374 21.9952 30.5533C21.4902 30.1423 20.5872 29.1623 20.7372 28.5413C20.8388 28.312 20.9992 28.1137 21.2022 27.9664C21.9882 27.5155 22.8786 27.2782 23.7847 27.2782C24.6908 27.2782 25.5812 27.5155 26.3672 27.9664C26.5702 28.1137 26.7306 28.312 26.8322 28.5413C26.8468 28.7634 26.8139 28.9861 26.7358 29.1946C26.6577 29.403 26.5362 29.5925 26.3792 29.7504C26.1345 30.0398 25.8651 30.3074 25.5742 30.5503C25.0714 30.9348 24.5117 31.2385 23.9152 31.4503C23.8941 31.8169 23.9005 32.1847 23.9342 32.5503C23.9592 32.6113 24.0722 32.6723 24.4412 32.8253C26.9272 33.8523 29.4242 33.0513 29.9602 31.0543C30.0324 30.7916 30.0661 30.5197 30.0602 30.2473C30.0752 29.8143 30.0852 29.7643 30.1602 29.7393C30.1906 29.7335 30.2221 29.7381 30.2496 29.7523C30.2771 29.7664 30.2992 29.7892 30.3122 29.8173C30.3719 30.051 30.3878 30.2938 30.3592 30.5333C30.3153 31.218 30.0459 31.8688 29.5932 32.3843C29.1863 32.824 28.6748 33.1536 28.1062 33.3423C27.6405 33.4987 27.1524 33.5777 26.6612 33.5763C26.4382 33.5874 26.2146 33.578 25.9932 33.5483C25.2197 33.4681 24.469 33.2392 23.7822 32.8743C23.5112 33.0063 23.1992 33.1374 23.0162 33.2064C22.2363 33.4997 21.4025 33.6218 20.5712 33.5643L20.5752 33.5633ZM20.3062 25.6544C20.189 25.559 20.0784 25.4557 19.9752 25.3453C19.8222 25.1883 19.6092 24.9883 19.5002 24.8993C19.0733 24.5581 18.6024 24.276 18.1002 24.0604C17.6631 23.8841 17.2081 23.756 16.7432 23.6783C16.1477 23.5956 15.5416 23.6357 14.9622 23.7963C14.8249 23.838 14.6834 23.8646 14.5402 23.8754C14.4658 23.8811 14.3912 23.8672 14.3238 23.8353C14.2563 23.8033 14.1984 23.7543 14.1556 23.6931C14.1129 23.6319 14.0869 23.5606 14.0802 23.4863C14.0734 23.412 14.0862 23.3372 14.1172 23.2693L14.0112 23.2443C13.8267 23.193 13.6542 23.1057 13.5035 22.9874C13.3528 22.8692 13.227 22.7224 13.1332 22.5554C13.0526 22.4405 13.0002 22.3083 12.9802 22.1694C12.9962 22.1594 13.0192 22.1874 13.1612 22.3914C13.2817 22.5559 13.4341 22.6945 13.6093 22.7988C13.7846 22.9031 13.9791 22.971 14.1812 22.9983L14.2812 23.0093L14.6272 22.6694L14.5652 22.6233C14.3787 22.4847 14.2254 22.3062 14.1166 22.1009C14.0078 21.8955 13.9462 21.6685 13.9362 21.4363C13.9252 21.2223 13.9412 21.2183 14.0012 21.4183C14.1304 21.8516 14.4093 22.2247 14.7882 22.4713L14.8792 22.5173L15.0262 22.4383C15.4951 22.2201 16.006 22.107 16.5232 22.107C17.0404 22.107 17.5513 22.2201 18.0202 22.4383C18.9637 22.8373 19.7393 23.5517 20.2142 24.4593C20.373 24.763 20.4682 25.0957 20.4942 25.4373C20.4942 25.5873 20.4942 25.5953 20.4472 25.6373C20.4002 25.6793 20.3762 25.6874 20.3022 25.6544H20.3062ZM27.1242 25.6363C27.0772 25.5953 27.0752 25.5883 27.0772 25.4363C27.1043 25.0946 27.1995 24.7617 27.3572 24.4573C27.8322 23.5499 28.6078 22.8359 29.5512 22.4373C30.0201 22.2191 30.531 22.1061 31.0482 22.1061C31.5654 22.1061 32.0763 22.2191 32.5452 22.4373L32.6922 22.5164L32.7832 22.4703C33.1619 22.2235 33.4407 21.8504 33.5702 21.4174C33.6292 21.2174 33.6462 21.2174 33.6352 21.4354C33.6254 21.6676 33.5638 21.8947 33.455 22.1C33.3462 22.3054 33.1929 22.4838 33.0062 22.6223L32.9442 22.6683L33.2902 23.0084C33.5104 22.9916 33.7245 22.9278 33.9179 22.8212C34.1113 22.7145 34.2795 22.5676 34.4112 22.3903C34.5532 22.1903 34.5762 22.1583 34.5922 22.1683C34.6082 22.1783 34.5342 22.3933 34.4392 22.5533C34.3379 22.7375 34.1972 22.897 34.0271 23.0204C33.857 23.1439 33.6617 23.2282 33.4552 23.2673C33.4852 23.3353 33.4972 23.4099 33.4901 23.4839C33.4829 23.5579 33.4568 23.6288 33.4143 23.6898C33.3718 23.7507 33.3144 23.7998 33.2474 23.8321C33.1805 23.8644 33.1064 23.8789 33.0322 23.8743C32.8891 23.8632 32.7475 23.8364 32.6102 23.7944C32.2325 23.683 31.8399 23.6304 31.4462 23.6384C31.0625 23.6331 30.68 23.6826 30.3102 23.7853C29.6759 23.9418 29.0732 24.206 28.5282 24.5663C28.19 24.7892 27.8786 25.0502 27.6002 25.3444C27.3552 25.5954 27.2532 25.6783 27.1912 25.6783C27.166 25.6696 27.1431 25.6552 27.1242 25.6363Z" fill="#050403"/>
<path d="M13.7371 29.0522C13.7133 29.0259 13.6839 29.0054 13.6511 28.9922C13.3718 29.011 13.0956 29.062 12.8281 29.1442C11.7122 29.4876 10.7461 30.1998 10.0881 31.1642C9.77731 31.5947 9.5549 32.0826 9.43372 32.5995C9.31254 33.1165 9.29498 33.6524 9.38205 34.1762C9.40605 34.3032 9.43506 34.4392 9.44706 34.4762C9.46006 34.5162 9.49207 34.6112 9.51807 34.6862C9.56307 34.8122 9.57308 34.8282 9.64808 34.8862C10.1857 35.1413 10.7679 35.2891 11.3621 35.3212C11.8837 35.4054 12.4157 35.4017 12.9361 35.3102L13.1821 35.2592C13.2502 35.3601 13.3327 35.4504 13.4271 35.5272C13.5187 35.6071 13.6193 35.6759 13.7271 35.7322L13.7101 35.9832C13.6929 36.5112 13.7636 37.0384 13.9191 37.5432C14.0341 38.127 14.2613 38.6829 14.5881 39.1802C14.615 39.2103 14.6478 39.2348 14.6844 39.252C14.721 39.2691 14.7607 39.2788 14.8011 39.2802C14.8801 39.2962 14.9781 39.3142 15.0201 39.3212C15.0621 39.3282 15.2011 39.3382 15.3291 39.3432C15.86 39.3566 16.3884 39.2646 16.8836 39.0725C17.3788 38.8804 17.831 38.5921 18.2141 38.2242C19.0774 37.4382 19.648 36.3821 19.8321 35.2292C19.8737 34.9526 19.8858 34.6723 19.8681 34.3932C19.6936 34.2137 19.4852 34.0706 19.2551 33.9722C18.7682 33.7115 18.233 33.5534 17.6826 33.5076C17.1322 33.4619 16.5783 33.5294 16.0551 33.7062C15.9937 33.7337 15.9309 33.7581 15.8671 33.7792C15.7762 33.5565 15.6332 33.359 15.4501 33.2032C15.2688 33.0453 15.0536 32.9313 14.8211 32.8702C14.8211 32.8632 14.8411 32.7752 14.8671 32.6702C14.9698 32.1267 14.9597 31.5679 14.8376 31.0285C14.7155 30.4891 14.4838 29.9804 14.1571 29.5342C14.032 29.3604 13.8929 29.1972 13.7411 29.0462L13.7371 29.0522Z" fill="#F865B0"/>
</svg>
