<svg width="10" height="21" viewBox="0 0 10 21" fill="none" xmlns="http://www.w3.org/2000/svg">
<path d="M4.81702 0.34848L0.416992 7.96249C0.386682 8.01519 0.370809 8.07492 0.37085 8.13571C0.37089 8.19651 0.386856 8.25624 0.417236 8.3089C0.447617 8.36156 0.491336 8.40529 0.543945 8.43576C0.596555 8.46623 0.656247 8.48234 0.717041 8.48248H9.50903C9.56983 8.48234 9.62952 8.46623 9.68213 8.43576C9.73474 8.40529 9.77834 8.36156 9.80872 8.3089C9.8391 8.25624 9.85518 8.19651 9.85522 8.13571C9.85527 8.07492 9.83927 8.01519 9.80896 7.96249L5.40906 0.34848C5.37824 0.29756 5.33469 0.255453 5.28284 0.226227C5.23098 0.197001 5.17256 0.181641 5.11304 0.181641C5.05352 0.181641 4.99497 0.197001 4.94312 0.226227C4.89126 0.255453 4.84784 0.29756 4.81702 0.34848Z" fill="white"/>
<path d="M4.81702 20.2424L0.416992 12.6284C0.386609 12.5757 0.37059 12.5161 0.370605 12.4553C0.370621 12.3945 0.386704 12.3348 0.417114 12.2822C0.447524 12.2296 0.491175 12.1859 0.543823 12.1556C0.596471 12.1252 0.656275 12.1093 0.717041 12.1094H9.50903C9.5698 12.1093 9.62948 12.1252 9.68213 12.1556C9.73478 12.1859 9.77855 12.2296 9.80896 12.2822C9.83937 12.3348 9.85533 12.3945 9.85535 12.4553C9.85536 12.5161 9.83934 12.5757 9.80896 12.6284L5.40906 20.2424C5.37824 20.2933 5.33469 20.3354 5.28284 20.3646C5.23098 20.3939 5.17256 20.4092 5.11304 20.4092C5.05352 20.4092 4.99497 20.3939 4.94312 20.3646C4.89126 20.3354 4.84784 20.2933 4.81702 20.2424Z" fill="white"/>
</svg>
