<svg width="11" height="19" viewBox="0 0 11 19" fill="none" xmlns="http://www.w3.org/2000/svg">
<path d="M5.20604 0.599091L0.225937 7.41708C0.188347 7.46881 0.165807 7.52992 0.160751 7.59366C0.155696 7.6574 0.168406 7.72129 0.197372 7.77829C0.226339 7.83529 0.270471 7.88316 0.324936 7.91666C0.379401 7.95015 0.442027 7.96795 0.505966 7.96808H10.4659C10.5299 7.96813 10.5928 7.95042 10.6473 7.91693C10.7019 7.88344 10.746 7.83548 10.7749 7.77838C10.8038 7.72128 10.8163 7.65729 10.811 7.59351C10.8057 7.52972 10.7829 7.46864 10.745 7.41708L5.765 0.599091C5.73288 0.55508 5.69077 0.519283 5.6422 0.494598C5.59363 0.469914 5.53994 0.457031 5.48546 0.457031C5.43098 0.457031 5.37729 0.469914 5.32872 0.494598C5.28015 0.519283 5.23815 0.55508 5.20604 0.599091Z" fill="#ECB55C"/>
<path d="M5.20605 18.5878L0.225952 11.7688C0.188264 11.7171 0.16562 11.6561 0.160522 11.5923C0.155425 11.5286 0.168143 11.4647 0.197143 11.4078C0.226143 11.3508 0.270307 11.303 0.324829 11.2696C0.379351 11.2363 0.44206 11.2187 0.505981 11.2188H10.4659C10.5298 11.2188 10.5924 11.2366 10.6467 11.27C10.7011 11.3035 10.7452 11.3513 10.774 11.4082C10.8029 11.4652 10.8156 11.529 10.8104 11.5926C10.8053 11.6562 10.7826 11.7172 10.745 11.7688L5.76501 18.5878C5.7329 18.6318 5.69078 18.6676 5.64221 18.6923C5.59364 18.7169 5.53996 18.7298 5.48547 18.7298C5.43099 18.7298 5.3773 18.7169 5.32874 18.6923C5.28017 18.6676 5.23817 18.6318 5.20605 18.5878Z" fill="#ECB55C"/>
</svg>
