<svg width="31" height="31" viewBox="0 0 31 31" fill="none" xmlns="http://www.w3.org/2000/svg">
<path d="M29.684 20.9733C29.53 20.8733 29.364 20.7964 29.201 20.7144C27.9883 20.1044 26.776 19.496 25.564 18.8893C25.488 18.8523 25.364 18.8353 25.364 18.7493C25.352 18.6293 25.489 18.6213 25.564 18.5823C26.852 17.9323 28.14 17.2823 29.434 16.6423C29.7087 16.5392 29.9454 16.3547 30.1125 16.1135C30.2796 15.8722 30.3691 15.5858 30.3691 15.2924C30.3691 14.9989 30.2796 14.7124 30.1125 14.4712C29.9454 14.23 29.7087 14.0455 29.434 13.9423C28.16 13.3133 26.891 12.6723 25.622 12.0323C25.522 11.9823 25.392 11.9673 25.343 11.8323C25.4376 11.7421 25.551 11.6738 25.675 11.6323C26.953 10.987 28.232 10.3443 29.512 9.70435C29.7736 9.59604 29.9962 9.41097 30.1505 9.17352C30.3047 8.93607 30.3833 8.65739 30.376 8.37433C30.3714 8.09229 30.2835 7.81796 30.1234 7.58575C29.9632 7.35355 29.738 7.17384 29.476 7.06934C24.968 4.82067 20.4623 2.56733 15.959 0.309326C15.7233 0.179416 15.4586 0.111328 15.1895 0.111328C14.9204 0.111328 14.6556 0.179416 14.42 0.309326C9.92597 2.56533 5.42897 4.81403 0.928972 7.05536C0.656897 7.1582 0.42258 7.34146 0.257219 7.58075C0.0918585 7.82003 0.00329753 8.10397 0.00329753 8.39484C0.00329753 8.6857 0.0918585 8.9697 0.257219 9.20898C0.42258 9.44827 0.656897 9.63153 0.928972 9.73438C2.21397 10.3664 3.48796 11.0184 4.76596 11.6644C4.88253 11.6974 4.98289 11.7721 5.04796 11.8743C4.92296 11.9383 4.81997 11.9954 4.71497 12.0474C3.42563 12.6954 2.13596 13.3423 0.845964 13.9883C0.597628 14.0976 0.385894 14.2758 0.235948 14.5019C0.0860026 14.728 0.00415729 14.9924 0.000154215 15.2637C-0.00384886 15.5349 0.0701563 15.8016 0.213365 16.032C0.356574 16.2625 0.562964 16.4469 0.80797 16.5634C0.88397 16.6054 0.959966 16.6434 1.03797 16.6824C2.25997 17.2957 3.48164 17.909 4.70297 18.5223C4.81497 18.5783 5.00997 18.6024 5.00897 18.7224C5.00897 18.8674 4.80897 18.8864 4.68897 18.9464C3.4223 19.589 2.15363 20.2284 0.882967 20.8644C0.684557 20.9501 0.507483 21.0785 0.364366 21.2404C0.22125 21.4024 0.115609 21.5939 0.0549638 21.8013C-0.0424671 22.1424 -0.00786813 22.5076 0.151872 22.8243C0.311613 23.141 0.584774 23.386 0.916963 23.5104C5.37496 25.7397 9.83197 27.973 14.288 30.2103C14.5626 30.3653 14.8726 30.4468 15.188 30.4468C15.5033 30.4468 15.8133 30.3653 16.088 30.2103C19.749 28.3613 23.421 26.5344 27.088 24.7004C27.925 24.2814 28.77 23.8754 29.598 23.4384C29.8249 23.3264 30.0172 23.1551 30.1545 22.9426C30.2919 22.7301 30.369 22.4844 30.3779 22.2316C30.3867 21.9787 30.3268 21.7282 30.2047 21.5067C30.0825 21.2851 29.9025 21.1008 29.684 20.9733ZM4.91997 15.4664C4.82897 15.4204 4.71296 15.4014 4.65596 15.2734C4.6949 15.2408 4.73637 15.2114 4.77997 15.1854C5.88697 14.6304 6.99596 14.0853 8.09796 13.5193C8.17574 13.4847 8.26131 13.4712 8.34598 13.4803C8.43064 13.4895 8.51139 13.5209 8.57997 13.5714C10.48 14.5163 12.38 15.4433 14.268 16.4133C14.5514 16.5762 14.8727 16.6615 15.1996 16.6606C15.5265 16.6598 15.8474 16.5727 16.13 16.4083C18.006 15.4453 19.902 14.5213 21.786 13.5743C21.8764 13.52 21.9798 13.4909 22.0853 13.4901C22.1908 13.4892 22.2946 13.5165 22.386 13.5693C23.41 14.0963 24.442 14.6044 25.472 15.1204C25.557 15.1634 25.637 15.2134 25.789 15.2994L24.604 15.8994C21.5906 17.4054 18.579 18.913 15.569 20.4224C15.4556 20.4896 15.3264 20.5255 15.1946 20.5264C15.0628 20.5273 14.9332 20.4931 14.819 20.4274C11.523 18.7667 8.2233 17.113 4.91997 15.4664ZM25.446 22.3604C22.126 24.0237 18.8053 25.6863 15.484 27.3483C15.398 27.4 15.3 27.4281 15.1998 27.4299C15.0996 27.4316 15.0006 27.4069 14.913 27.3583C11.5756 25.681 8.23563 24.0087 4.89296 22.3414C4.81696 22.3034 4.74597 22.2594 4.65297 22.2064C4.71622 22.1166 4.80723 22.0502 4.91197 22.0173C5.94197 21.5013 6.97496 20.9913 8.00096 20.4673C8.09194 20.414 8.1955 20.3859 8.30097 20.3859C8.40643 20.3859 8.50999 20.414 8.60097 20.4673C10.501 21.4263 12.418 22.3674 14.317 23.3334C14.5839 23.4838 14.8851 23.5628 15.1915 23.5628C15.4979 23.5628 15.7991 23.4838 16.066 23.3334C17.945 22.3754 19.841 21.4464 21.724 20.4954C21.8278 20.4321 21.9468 20.398 22.0684 20.3965C22.19 20.3951 22.3097 20.4265 22.415 20.4874C23.415 21.0074 24.433 21.5044 25.442 22.0114C25.535 22.0584 25.65 22.0784 25.704 22.1884C25.654 22.2974 25.536 22.3144 25.446 22.3604Z" fill="white"/>
</svg>
