<svg width="30" height="28" viewBox="0 0 30 28" fill="none" xmlns="http://www.w3.org/2000/svg">
<path d="M14.9811 0.208929C19.2478 0.208929 23.5125 0.208929 27.7752 0.208929C28.1582 0.182971 28.5386 0.28882 28.8532 0.508917C29.0413 0.64347 29.194 0.82151 29.2985 1.02784C29.403 1.23417 29.456 1.46266 29.4532 1.69391C29.4532 4.12191 29.4532 6.55028 29.4532 8.97895C29.4628 9.17968 29.4316 9.3803 29.3614 9.56861C29.2912 9.75692 29.1835 9.92899 29.0448 10.0745C28.9062 10.2199 28.7395 10.3358 28.5547 10.4149C28.37 10.4941 28.1711 10.5349 27.9701 10.5349C27.3201 10.5569 26.6701 10.535 26.0171 10.544C25.8871 10.544 25.8742 10.4759 25.8742 10.3729C25.8742 9.90793 25.8742 9.44197 25.8742 8.97297V5.41797C25.8834 5.25876 25.8557 5.09952 25.7933 4.95276C25.7308 4.80601 25.6353 4.67571 25.5142 4.57197C25.4211 4.49274 25.3119 4.43459 25.1941 4.40162C25.0764 4.36864 24.9529 4.36159 24.8322 4.38093C24.7061 4.39525 24.5791 4.40164 24.4522 4.39997C18.8909 4.39997 13.3299 4.39997 7.76921 4.39997C6.86921 4.39997 5.96913 4.39992 5.06913 4.37592C4.93418 4.36972 4.79942 4.39162 4.67338 4.44025C4.54734 4.48888 4.43277 4.56321 4.33696 4.65845C4.24115 4.7537 4.16624 4.86785 4.11686 4.9936C4.06749 5.11935 4.0448 5.25393 4.05021 5.38892C4.05021 6.69092 4.05021 7.99262 4.05021 9.29395C4.05021 9.65395 4.04521 10.0139 4.05021 10.3729C4.05021 10.5059 4.00319 10.547 3.87419 10.546C3.24019 10.54 2.60416 10.5459 1.97416 10.5399C1.5772 10.5399 1.19649 10.3826 0.915325 10.1024C0.634164 9.82214 0.475486 9.44188 0.474163 9.04493C0.432163 6.72793 0.466195 4.40996 0.457195 2.09296C0.45133 1.88145 0.462012 1.66981 0.489177 1.45997C0.539412 1.1548 0.683846 0.872953 0.902263 0.653998C1.12068 0.435042 1.40216 0.289944 1.70719 0.238959C1.84801 0.216121 1.99059 0.205741 2.13322 0.207953H14.9761L14.9811 0.208929Z" fill="white"/>
<path d="M14.9701 24.9376H23.6852C23.7432 24.9376 23.8012 24.9376 23.8592 24.9376C23.9492 24.9376 23.9952 24.9725 23.9952 25.0695C23.9952 25.7695 24.0022 26.4765 23.9892 27.1805C23.9751 27.3466 23.8974 27.5008 23.7724 27.6109C23.6473 27.721 23.4846 27.7786 23.3182 27.7715C22.9262 27.7775 22.5341 27.7715 22.1431 27.7715C17.0051 27.7715 11.8672 27.7735 6.72917 27.7775C6.61988 27.7895 6.50931 27.7769 6.40556 27.7405C6.30181 27.7041 6.20757 27.6449 6.12968 27.5673C6.0518 27.4897 5.99225 27.3957 5.95549 27.2921C5.91872 27.1884 5.9056 27.0779 5.91716 26.9686C5.92616 26.3686 5.91716 25.7686 5.91716 25.1746C5.91716 24.9416 5.92315 24.9355 6.15715 24.9355L14.9701 24.9376Z" fill="#EF542B"/>
<path d="M23.9903 6.47976V6.36978C24.0003 6.26978 23.9503 6.22977 23.8603 6.23977H6.10027C5.99027 6.22977 5.94023 6.2798 5.94023 6.3898C5.94023 6.8298 5.92034 7.2698 5.92034 7.7098V22.2298C5.91867 22.3066 5.92202 22.3834 5.93035 22.4598C5.92822 22.5558 5.94674 22.6511 5.98467 22.7393C6.02259 22.8275 6.07895 22.9065 6.15007 22.971C6.22119 23.0355 6.30542 23.0839 6.3969 23.113C6.48837 23.1421 6.58504 23.1513 6.68035 23.1398H23.3003C23.3676 23.1436 23.4351 23.1368 23.5003 23.1198C23.6572 23.0816 23.7946 22.9872 23.8868 22.8546C23.9789 22.7219 24.0193 22.5602 24.0003 22.3998C24.0003 17.0898 23.9969 11.7831 23.9903 6.47976ZM11.8903 16.5658C11.945 16.8345 12.0927 17.0754 12.3074 17.2461C12.5221 17.4167 12.7901 17.5062 13.0643 17.4988H16.9303V16.4938C16.9296 16.4376 16.9457 16.3825 16.9766 16.3356C17.0075 16.2887 17.0517 16.2521 17.1036 16.2306C17.1554 16.209 17.2126 16.2035 17.2676 16.2148C17.3227 16.2261 17.373 16.2536 17.4123 16.2938L18.9803 17.8608C19.0069 17.8869 19.0281 17.918 19.0425 17.9523C19.057 17.9866 19.0644 18.0235 19.0644 18.0608C19.0644 18.098 19.057 18.1349 19.0425 18.1693C19.0281 18.2036 19.0069 18.2347 18.9803 18.2608L17.4123 19.8288C17.3732 19.8685 17.323 19.8957 17.2684 19.9068C17.2137 19.9178 17.157 19.9122 17.1055 19.8906C17.0541 19.8691 17.0103 19.8327 16.9798 19.786C16.9493 19.7393 16.9334 19.6846 16.9343 19.6288V18.6238H13.0003C12.6866 18.6238 12.3763 18.558 12.0895 18.4309C11.8027 18.3037 11.5458 18.1179 11.3351 17.8855C11.1245 17.653 10.965 17.379 10.8666 17.0811C10.7683 16.7832 10.7335 16.468 10.7643 16.1558C10.8346 15.5895 11.1116 15.0691 11.5423 14.6948C11.9729 14.3204 12.5268 14.1185 13.0973 14.1278H16.9343C17.0979 14.1275 17.2596 14.0916 17.4079 14.0224C17.5562 13.9532 17.6876 13.8525 17.7929 13.7273C17.8982 13.602 17.9749 13.4553 18.0176 13.2974C18.0604 13.1394 18.0681 12.974 18.0403 12.8128C17.9856 12.5441 17.8378 12.3034 17.6231 12.1329C17.4084 11.9624 17.1403 11.8731 16.8663 11.8808H13.0003V12.8858C13.0002 12.9411 12.9837 12.9952 12.9531 13.0413C12.9224 13.0873 12.8789 13.1233 12.8278 13.1446C12.7768 13.166 12.7205 13.1718 12.6662 13.1613C12.6118 13.1509 12.5617 13.1246 12.5223 13.0858L10.9543 11.5178C10.9275 11.4918 10.9063 11.4607 10.8918 11.4264C10.8773 11.392 10.8698 11.3551 10.8698 11.3178C10.8698 11.2805 10.8773 11.2436 10.8918 11.2093C10.9063 11.1749 10.9275 11.1438 10.9543 11.1178L12.5223 9.55081C12.5614 9.51102 12.6115 9.48383 12.6662 9.4728C12.7209 9.46178 12.7776 9.46739 12.829 9.48892C12.8805 9.51045 12.9242 9.54691 12.9548 9.59359C12.9853 9.64027 13.0012 9.69499 13.0003 9.75076V10.7558H16.9343C17.2479 10.7558 17.5581 10.8215 17.8448 10.9486C18.1315 11.0757 18.3884 11.2614 18.599 11.4938C18.8097 11.7262 18.9693 12 19.0677 12.2978C19.1661 12.5956 19.201 12.9107 19.1703 13.2228C19.1003 13.7892 18.8232 14.3096 18.3925 14.684C17.9618 15.0584 17.4079 15.2603 16.8373 15.2508H13.0003C12.8361 15.2501 12.6738 15.2855 12.5247 15.3543C12.3756 15.4231 12.2434 15.5236 12.1374 15.649C12.0313 15.7743 11.954 15.9213 11.9108 16.0797C11.8676 16.2381 11.8595 16.4039 11.8873 16.5658H11.8903Z" fill="#EF542B"/>
</svg>
