<svg width="43" height="43" viewBox="0 0 43 43" fill="none" xmlns="http://www.w3.org/2000/svg">
<path d="M21.173 0.439453C25.3528 0.439453 29.4387 1.67893 32.914 4.0011C36.3893 6.32327 39.098 9.6238 40.6974 13.4854C42.2969 17.347 42.7155 21.5963 41.9 25.6957C41.0845 29.7951 39.0716 33.5606 36.116 36.5161C33.1604 39.4716 29.3948 41.4842 25.2953 42.2995C21.1959 43.1148 16.9467 42.6962 13.0851 41.0965C9.22361 39.4968 5.92314 36.788 3.60114 33.3126C1.27913 29.8371 0.0398413 25.7512 0.0400391 21.5715C0.0403043 15.9668 2.26693 10.5918 6.2301 6.62878C10.1933 2.66579 15.5684 0.439453 21.173 0.439453Z" fill="#53AE94"/>
<path d="M23.7812 18.7563V15.6122H30.9702V10.8223H11.3942V15.6122H18.5842V18.7533C12.7402 19.0223 8.34717 20.1792 8.34717 21.5652C8.34717 22.9512 12.7472 24.1093 18.5842 24.3793V34.4493H23.7842V24.3783C29.6172 24.1093 34.0021 22.9523 34.0021 21.5673C34.0021 20.1823 29.6172 19.0263 23.7842 18.7573M23.7842 23.5253C23.6382 23.5353 22.8842 23.5803 21.2062 23.5803C19.8652 23.5803 18.9212 23.5423 18.5882 23.5253C13.4262 23.2963 9.57318 22.3973 9.57318 21.3253C9.57318 20.2533 13.4262 19.3522 18.5882 19.1252V22.6353C18.9262 22.6583 19.8882 22.7153 21.2282 22.7153C22.8282 22.7153 23.6372 22.6493 23.7852 22.6353V19.1252C28.9372 19.3552 32.7852 20.2543 32.7852 21.3253C32.7852 22.3963 28.9382 23.2973 23.7842 23.5253Z" fill="white"/>
</svg>
