<svg width="54" height="30" viewBox="0 0 54 30" fill="none" xmlns="http://www.w3.org/2000/svg">
<path opacity="0.35" d="M38.8247 0.771484H15.2867C7.39073 0.771484 0.989746 7.17247 0.989746 15.0685V15.0695C0.989746 22.9655 7.39073 29.3665 15.2867 29.3665H38.8247C46.7208 29.3665 53.1217 22.9655 53.1217 15.0695V15.0685C53.1217 7.17247 46.7208 0.771484 38.8247 0.771484Z" fill="black"/>
<path d="M38.8247 26.8368C45.3245 26.8368 50.5937 21.5677 50.5937 15.0678C50.5937 8.56799 45.3245 3.29883 38.8247 3.29883C32.3248 3.29883 27.0557 8.56799 27.0557 15.0678C27.0557 21.5677 32.3248 26.8368 38.8247 26.8368Z" fill="url(#paint0_linear_1081_32907)"/>
<defs>
<linearGradient id="paint0_linear_1081_32907" x1="36.2119" y1="7.72397" x2="41.5786" y2="22.8118" gradientUnits="userSpaceOnUse">
<stop stop-color="#E6B666"/>
<stop offset="1" stop-color="#9D6027"/>
</linearGradient>
</defs>
</svg>
