<svg width="53" height="30" viewBox="0 0 53 30" fill="none" xmlns="http://www.w3.org/2000/svg">
<path opacity="0.35" d="M38.0599 0.564453H14.5219C6.62584 0.564453 0.224854 6.96544 0.224854 14.8615V14.8625C0.224854 22.7585 6.62584 29.1595 14.5219 29.1595H38.0599C45.9559 29.1595 52.3569 22.7585 52.3569 14.8625V14.8615C52.3569 6.96544 45.9559 0.564453 38.0599 0.564453Z" fill="black"/>
<path d="M14.5219 26.6318C21.0218 26.6318 26.2909 21.3626 26.2909 14.8628C26.2909 8.36291 21.0218 3.09375 14.5219 3.09375C8.02209 3.09375 2.75293 8.36291 2.75293 14.8628C2.75293 21.3626 8.02209 26.6318 14.5219 26.6318Z" fill="url(#paint0_linear_1081_32571)"/>
<defs>
<linearGradient id="paint0_linear_1081_32571" x1="11.9092" y1="7.51889" x2="17.2759" y2="22.6068" gradientUnits="userSpaceOnUse">
<stop stop-color="#E6B666"/>
<stop offset="1" stop-color="#9D6027"/>
</linearGradient>
</defs>
</svg>
