<svg width="33" height="42" viewBox="0 0 33 42" fill="none" xmlns="http://www.w3.org/2000/svg">
<path d="M6.95917 12.3099C6.6545 12.3099 6.35281 12.2499 6.07133 12.1333C5.78986 12.0167 5.53411 11.8459 5.31868 11.6304C5.10325 11.415 4.93236 11.1592 4.81577 10.8777C4.69917 10.5963 4.63916 10.2946 4.63916 9.98993V3.03094C4.63916 2.41564 4.8836 1.82553 5.31868 1.39044C5.75376 0.955357 6.34387 0.710938 6.95917 0.710938C7.57447 0.710938 8.16457 0.955357 8.59966 1.39044C9.03474 1.82553 9.27916 2.41564 9.27916 3.03094V9.98993C9.27916 10.2946 9.21916 10.5963 9.10257 10.8777C8.98598 11.1592 8.81509 11.415 8.59966 11.6304C8.38422 11.8459 8.12846 12.0167 7.84698 12.1333C7.56551 12.2499 7.26383 12.3099 6.95917 12.3099Z" fill="white"/>
<path d="M6.95917 37.8285C6.6545 37.8285 6.35281 37.7685 6.07133 37.6519C5.78986 37.5353 5.53411 37.3644 5.31868 37.149C5.10325 36.9336 4.93236 36.6778 4.81577 36.3963C4.69917 36.1148 4.63916 35.8132 4.63916 35.5085V28.5485C4.63916 27.9332 4.8836 27.3431 5.31868 26.908C5.75376 26.4729 6.34387 26.2285 6.95917 26.2285C7.57447 26.2285 8.16457 26.4729 8.59966 26.908C9.03474 27.3431 9.27916 27.9332 9.27916 28.5485V35.5085C9.27916 35.8132 9.21916 36.1148 9.10257 36.3963C8.98598 36.6778 8.81509 36.9336 8.59966 37.149C8.38422 37.3644 8.12846 37.5353 7.84698 37.6519C7.56551 37.7685 7.26383 37.8285 6.95917 37.8285Z" fill="white"/>
<path d="M9.743 30.8689H4.175C3.06796 30.8676 2.00664 30.4272 1.22394 29.6443C0.441232 28.8614 0.00105858 27.8 0 26.6929V11.8459C0.00105858 10.7389 0.441232 9.67749 1.22394 8.89459C2.00664 8.1117 3.06796 7.67125 4.175 7.66992H9.743C10.8501 7.67098 11.9116 8.11134 12.6944 8.89429C13.4771 9.67724 13.9172 10.7388 13.918 11.8459V26.6929C13.9172 27.8001 13.4771 28.8616 12.6944 29.6446C11.9116 30.4275 10.8501 30.8678 9.743 30.8689ZM4.64301 26.2289H9.283V12.3099H4.64301V26.2289Z" fill="white"/>
<path d="M25.5182 22.7498C24.9029 22.7498 24.3128 22.5053 23.8778 22.0703C23.4427 21.6352 23.1982 21.0451 23.1982 20.4297V8.82971C23.1982 8.21441 23.4427 7.62435 23.8778 7.18927C24.3128 6.75419 24.9029 6.50977 25.5182 6.50977C26.1336 6.50977 26.7237 6.75419 27.1587 7.18927C27.5938 7.62435 27.8382 8.21441 27.8382 8.82971V20.4297C27.8382 21.0451 27.5938 21.6352 27.1587 22.0703C26.7237 22.5053 26.1336 22.7498 25.5182 22.7498Z" fill="white"/>
<path d="M25.5182 41.309C24.9029 41.309 24.3128 41.0645 23.8778 40.6295C23.4427 40.1944 23.1982 39.6043 23.1982 38.989V32.029C23.1982 31.4137 23.4427 30.8236 23.8778 30.3885C24.3128 29.9534 24.9029 29.709 25.5182 29.709C26.1336 29.709 26.7237 29.9534 27.1587 30.3885C27.5938 30.8236 27.8382 31.4137 27.8382 32.029V38.989C27.8382 39.6043 27.5938 40.1944 27.1587 40.6295C26.7237 41.0645 26.1336 41.309 25.5182 41.309Z" fill="white"/>
<path d="M28.3021 34.3484H22.7341C21.627 34.3471 20.5657 33.9066 19.783 33.1237C19.0003 32.3408 18.5601 31.2794 18.5591 30.1724V22.2854C18.5601 21.1784 19.0003 20.1169 19.783 19.334C20.5657 18.5512 21.627 18.1107 22.7341 18.1094H28.3021C29.4092 18.1104 30.4707 18.5508 31.2534 19.3337C32.0362 20.1167 32.4763 21.1783 32.4771 22.2854V30.1724C32.4763 31.2795 32.0362 32.3411 31.2534 33.124C30.4707 33.907 29.4092 34.3473 28.3021 34.3484ZM23.2021 29.7084H27.8421V22.7494H23.2021V29.7084Z" fill="white"/>
</svg>
