<svg width="36" height="29" viewBox="0 0 36 29" fill="none" xmlns="http://www.w3.org/2000/svg">
<path d="M35.0601 3.48272C33.7744 4.05632 32.4103 4.43487 31.0129 4.60577L30.942 4.61261C32.4206 3.72105 33.5335 2.33211 34.0811 0.694638L34.0959 0.643857C32.7131 1.45604 31.2055 2.03381 29.634 2.35382L29.5341 2.36993C28.4511 1.21475 27.0165 0.449968 25.4537 0.195126C23.891 -0.0597156 22.2878 0.209454 20.8939 0.960751C19.5001 1.71205 18.3938 2.9034 17.7476 4.34894C17.1013 5.79447 16.9514 7.41327 17.321 8.95294L17.312 8.90362C14.469 8.76754 11.6863 8.03544 9.14465 6.75421C6.60303 5.47297 4.35925 3.67123 2.55896 1.46661L2.53003 1.43097C1.89072 2.50996 1.55513 3.74174 1.55896 4.99591V5.04474C1.55841 6.21995 1.84677 7.3773 2.39868 8.41485C2.95059 9.45241 3.74917 10.3386 4.724 10.9949L4.75 11.011C3.5973 10.9753 2.47038 10.6607 1.46594 10.0941L1.50195 10.1126V10.2029C1.50201 11.8508 2.06906 13.4486 3.10791 14.7278C4.14676 16.0071 5.5942 16.8897 7.20703 17.2278L7.25403 17.2357C6.63968 17.4026 6.00564 17.486 5.36902 17.4837C4.90389 17.4836 4.43983 17.4395 3.98303 17.3519L4.02905 17.3587C4.49158 18.7811 5.38481 20.0246 6.58521 20.9168C7.7856 21.809 9.2337 22.3058 10.729 22.3387H10.736C8.20656 24.3335 5.07729 25.4153 1.85596 25.408H1.84094C1.24719 25.4086 0.653907 25.3751 0.0639648 25.3079L0.13501 25.3148C3.41377 27.428 7.23426 28.5469 11.135 28.5359H11.297C16.6699 28.5357 21.8227 26.4011 25.6219 22.6019C29.4212 18.8026 31.5558 13.6496 31.556 8.27667V8.14776C31.556 7.84176 31.5561 7.53579 31.5341 7.22979C32.924 6.22661 34.1267 4.98662 35.087 3.56671L35.12 3.51495L35.0601 3.48272Z" fill="#ECB55C"/>
</svg>
