<svg width="47" height="47" viewBox="0 0 47 47" fill="none" xmlns="http://www.w3.org/2000/svg">
<path d="M0.947076 18.1182C2.04997 13.6617 4.4496 9.63219 7.84258 6.53949C11.2356 3.44678 15.4695 1.42975 20.0088 0.743346C24.5482 0.0569468 29.1892 0.732014 33.3449 2.68329C37.5006 4.63456 40.9843 7.7744 43.3555 11.7056C45.7267 15.6369 46.879 20.1829 46.6664 24.769C46.4539 29.355 44.8862 33.7751 42.1616 37.4702C39.4369 41.1652 35.6778 43.9693 31.3594 45.5279C27.0411 47.0865 22.3575 47.3296 17.9011 46.2263C14.942 45.4942 12.1562 44.1865 9.70269 42.3776C7.24917 40.5688 5.176 38.2943 3.60162 35.6841C2.02724 33.074 0.982512 30.1792 0.527032 27.1652C0.0715523 24.1512 0.21429 21.0771 0.947076 18.1182Z" fill="#F1F1F2"/>
<path d="M44.947 14.8672H26.965V18.4211H46.089C45.8043 17.2077 45.4225 16.0193 44.947 14.8672ZM40.358 7.7561H26.965V11.3131H43.113C42.3115 10.0414 41.3888 8.85022 40.358 7.7561ZM6.71301 39.7511H40.246C41.2936 38.6611 42.2315 37.4707 43.046 36.1971H3.92505C4.73803 37.4694 5.67266 38.6597 6.71594 39.7511M29.058 1.16211C28.358 0.990109 27.664 0.853094 26.968 0.746094V4.20215H36.095C33.9343 2.8052 31.5561 1.77777 29.058 1.16211ZM46.635 21.9751H26.968V25.5321H46.6219C46.7177 24.3485 46.7221 23.1593 46.635 21.9751ZM2.06299 32.6432H44.9C45.3555 31.5487 45.7268 30.4211 46.011 29.2701C46.026 29.2091 46.039 29.1482 46.054 29.0862H0.900024C1.19162 30.3011 1.5805 31.4907 2.06299 32.6432ZM17.905 46.2251C19.2542 46.5599 20.6307 46.7732 22.0179 46.8622H24.972C28.855 46.6112 32.6125 45.3881 35.899 43.3052H11.054C13.1654 44.6413 15.4789 45.6273 17.905 46.2251Z" fill="#ED3726"/>
<path d="M25.1999 24.23L24.6999 23.864L24.1999 24.23L24.3919 23.641L23.8919 23.275H24.5109L24.7039 22.686L24.894 23.275H25.515L25.015 23.641L25.1999 24.23ZM22.734 5.52295L22.925 6.11499L22.425 5.75L21.925 6.11499L22.118 5.52295L21.618 5.16003H22.237L22.43 4.56799L22.6219 5.16003H23.243L22.734 5.52295ZM22.734 10.8669L22.925 11.4561L22.425 11.0909L21.925 11.4561L22.118 10.8669L21.618 10.502H22.237L22.43 9.91296L22.6219 10.502H23.243L22.734 10.8669ZM22.6879 16.103L22.88 16.692L22.38 16.327L21.88 16.692L22.071 16.103L21.571 15.738H22.192L22.384 15.149L22.5739 15.738H23.1949L22.6879 16.103ZM22.8339 21.868L22.3339 21.502L21.8339 21.868L22.024 21.278L21.524 20.913H22.145L22.337 20.324L22.5279 20.913H23.149L22.649 21.278L22.8339 21.868ZM20.3659 8.11206L20.56 8.70105L20.06 8.33899L19.555 8.70105L19.748 8.11206L19.248 7.74597H19.8669L20.061 7.15796L20.2499 7.74597H20.8699L20.3659 8.11206ZM20.3659 13.291L20.56 13.88L20.06 13.514L19.555 13.88L19.748 13.291L19.248 12.925H19.8669L20.061 12.3361L20.2499 12.925H20.8699L20.3659 13.291ZM20.3659 18.584L20.56 19.177L20.06 18.811L19.555 19.177L19.748 18.584L19.248 18.222H19.8669L20.061 17.63L20.2499 18.222H20.8699L20.3659 18.584ZM20.56 24.23L20.06 23.864L19.555 24.23L19.748 23.641L19.248 23.275H19.8669L20.061 22.686L20.2499 23.275H20.8699L20.3699 23.641L20.56 24.23ZM18.092 5.52295L18.285 6.11499L17.785 5.75L17.285 6.11499L17.477 5.52295L16.977 5.16003H17.5959L17.7869 4.56799L17.979 5.16003H18.5999L18.092 5.52295ZM18.092 10.8669L18.285 11.4561L17.785 11.0909L17.285 11.4561L17.477 10.8669L16.977 10.502H17.5959L17.7869 9.91296L17.979 10.502H18.5999L18.092 10.8669ZM18.0479 16.103L18.239 16.692L17.739 16.327L17.239 16.692L17.43 16.103L16.93 15.738H17.5489L17.7409 15.149L17.9329 15.738H18.5539L18.0479 16.103ZM18.192 21.868L17.692 21.502L17.192 21.868L17.383 21.278L16.883 20.913H17.503L17.696 20.324L17.8869 20.913H18.5069L18.0069 21.278L18.192 21.868ZM15.7259 2.93701L15.9169 3.526L15.4169 3.16003L14.9169 3.526L15.108 2.93701L14.608 2.57104H15.229L15.42 1.98206L15.612 2.57104H16.233L15.7259 2.93701ZM15.7259 8.11206L15.9169 8.70105L15.4169 8.33899L14.9169 8.70105L15.108 8.11206L14.608 7.74597H15.229L15.42 7.15796L15.612 7.74597H16.233L15.7259 8.11206ZM15.7259 13.291L15.9169 13.88L15.4169 13.514L14.9169 13.88L15.108 13.291L14.608 12.925H15.229L15.42 12.3361L15.612 12.925H16.233L15.7259 13.291ZM15.7259 18.584L15.9169 19.177L15.4169 18.811L14.9169 19.177L15.108 18.584L14.608 18.222H15.229L15.42 17.63L15.612 18.222H16.233L15.7259 18.584ZM15.9169 24.23L15.4169 23.864L14.9169 24.23L15.108 23.641L14.608 23.275H15.229L15.42 22.686L15.612 23.275H16.233L15.733 23.641L15.9169 24.23ZM13.452 5.33704L13.645 5.92896L13.14 5.56299L12.64 5.92896L12.833 5.33704L12.333 4.974H12.952L13.1429 4.38501L13.336 4.974H13.956L13.452 5.33704ZM13.452 10.681L13.645 11.27L13.14 10.908L12.64 11.27L12.833 10.681L12.333 10.3149H12.952L13.1429 9.72705L13.336 10.3149H13.956L13.452 10.681ZM13.404 15.917L13.597 16.506L13.097 16.14L12.597 16.506L12.79 15.917L12.29 15.552H12.909L13.102 14.963L13.2919 15.552H13.9129L13.404 15.917ZM13.551 21.6851L13.051 21.319L12.551 21.6851L12.7419 21.092L12.2419 20.73H12.8609L13.0539 20.141L13.2449 20.73H13.8659L13.3659 21.092L13.551 21.6851ZM11.086 8.11206L11.279 8.70105L10.779 8.33899L10.274 8.70105L10.467 8.11206L9.96699 7.74597H10.5839L10.779 7.15796L10.968 7.74597H11.588L11.086 8.11206ZM11.086 13.291L11.279 13.88L10.779 13.514L10.274 13.88L10.467 13.291L9.96699 12.925H10.5839L10.779 12.3361L10.968 12.925H11.588L11.086 13.291ZM11.086 18.584L11.279 19.177L10.779 18.811L10.274 19.177L10.467 18.584L9.96699 18.222H10.5839L10.779 17.63L10.968 18.222H11.588L11.086 18.584ZM11.279 24.23L10.779 23.864L10.274 24.23L10.467 23.641L9.96699 23.275H10.5839L10.779 22.686L10.968 23.275H11.588L11.088 23.641L11.279 24.23ZM8.81098 10.63L9.003 11.219L8.503 10.854L8.003 11.219L8.19599 10.63L7.69599 10.265H8.31697L8.50898 9.67603L8.69892 10.265H9.32099L8.81098 10.63ZM8.76496 15.866L8.95698 16.455L8.45698 16.09L7.95698 16.455L8.1479 15.866L7.6479 15.501H8.26789L8.46101 14.912L8.64997 15.501H9.27094L8.76496 15.866ZM8.90901 21.63L8.40901 21.265L7.90901 21.63L8.09992 21.042L7.59992 20.676H8.2209L8.41291 20.087L8.60493 20.676H9.22492L8.72492 21.042L8.90901 21.63ZM19.8649 2.57104L20.0589 1.98206L20.248 2.57104H20.868L20.368 2.93701L20.562 3.526L20.062 3.16003L19.557 3.526L19.7499 2.93701L19.2499 2.57104H19.8649ZM24.5059 18.222L24.6989 17.63L24.889 18.222H25.509L25.009 18.584L25.1999 19.177L24.6999 18.811L24.1999 19.177L24.3919 18.584L23.8919 18.222H24.5059ZM24.5059 12.922L24.6989 12.333L24.889 12.922H25.509L25.009 13.288L25.1999 13.877L24.6999 13.511L24.1999 13.877L24.3919 13.288L23.8919 12.922H24.5059ZM24.5059 7.74304L24.6989 7.15503L24.889 7.74304H25.509L25.009 8.10901L25.1999 8.698L24.6999 8.33606L24.1999 8.698L24.3919 8.10901L23.8919 7.74304H24.5059ZM24.5059 2.56799L24.6989 1.979L24.889 2.56799H25.509L25.009 2.93396L25.1999 3.52295L24.6999 3.15698L24.1999 3.52295L24.3919 2.93396L23.8919 2.56799H24.5059ZM6.44489 13.288L6.63593 13.877L6.13593 13.511L5.63593 13.877L5.82697 13.288L5.32697 12.922H5.94599L6.13899 12.333L6.3299 12.922H6.951L6.44489 13.288ZM6.44489 18.5811L6.63593 19.174L6.13593 18.808L5.63593 19.174L5.82697 18.5811L5.32697 18.219H5.94599L6.13899 17.627L6.3299 18.219H6.951L6.44489 18.5811ZM6.63593 24.2271L6.13593 23.861L5.63593 24.2271L5.82697 23.6379L5.32697 23.272H5.94697L6.13996 22.683L6.331 23.272H6.95197L6.45197 23.6379L6.63593 24.2271ZM4.1219 15.772L4.31489 16.361L3.81489 15.996L3.31489 16.361L3.50593 15.772L3.00593 15.406H3.6269L3.81794 14.817L4.01093 15.406H4.62995L4.1219 15.772ZM4.26899 21.536L3.76899 21.171L3.26899 21.536L3.46198 20.947L2.96198 20.582H3.581L3.774 19.993L3.96296 20.582H4.58491L4.08491 20.947L4.26899 21.536ZM1.99995 24.23L1.49995 23.864L0.999948 24.23L1.19099 23.641L0.690988 23.275H1.31196L1.503 22.686L1.69599 23.275H2.31391L1.81391 23.641L1.99995 24.23ZM26.9649 0.746948C26.7369 0.711948 25.045 0.526047 24.817 0.498047L20.644 0.651978C16.3513 1.18447 12.2919 2.90314 8.92195 5.61499L9.00801 5.87805L8.78999 5.71997C8.02029 6.34783 7.29176 7.02457 6.60896 7.74597H6.951L6.451 8.11206L6.64192 8.70105L6.14192 8.33899L5.94196 8.48303C5.4753 9.0217 5.03127 9.58404 4.60993 10.17H4.68L4.53401 10.27C4.43401 10.414 4.33396 10.559 4.23396 10.705L4.36799 11.119L4.09199 10.9189C2.64269 13.1207 1.5797 15.5537 0.948923 18.113L0.924997 18.213H1.31001L1.50092 17.621L1.69392 18.213H2.31196L1.81196 18.575L2.00398 19.168L1.50398 18.802L1.00398 19.168L1.19489 18.575L0.894968 18.359C0.336096 20.7155 0.150146 23.1449 0.343942 25.559H26.972L26.9649 0.746948Z" fill="#223C72"/>
</svg>
