<svg width="30" height="31" viewBox="0 0 30 31" fill="none" xmlns="http://www.w3.org/2000/svg">
<path d="M4.42118 3.53363H29.4362V1.81464C29.465 1.39295 29.3269 0.976824 29.0517 0.656006C28.7766 0.335188 28.3863 0.135358 27.9652 0.0996094H2.95017C2.10653 0.169585 1.3245 0.569409 0.773734 1.21228C0.222969 1.85515 -0.0521102 2.68924 0.00817036 3.53363V27.5656C-0.0521102 28.41 0.222969 29.2441 0.773734 29.887C1.3245 30.5298 2.10653 30.9297 2.95017 30.9996H26.4942C27.3378 30.9297 28.1199 30.5298 28.6706 29.887C29.2214 29.2441 29.4965 28.41 29.4362 27.5656V8.68359C29.4658 8.2612 29.3282 7.84413 29.053 7.52234C28.7778 7.20054 28.387 6.99986 27.9652 6.96362H4.42118C4.01133 6.90085 3.63751 6.69338 3.36742 6.37878C3.09734 6.06418 2.94886 5.66323 2.94886 5.2486C2.94886 4.83397 3.09734 4.43307 3.36742 4.11847C3.63751 3.80387 4.01133 3.59641 4.42118 3.53363ZM24.2872 16.2876C24.7237 16.2876 25.1504 16.417 25.5133 16.6595C25.8763 16.9021 26.1591 17.2467 26.3262 17.65C26.4932 18.0533 26.5369 18.4971 26.4518 18.9252C26.3666 19.3533 26.1564 19.7465 25.8478 20.0552C25.5391 20.3638 25.1459 20.5741 24.7177 20.6592C24.2896 20.7444 23.8459 20.7007 23.4426 20.5336C23.0393 20.3666 22.6946 20.0837 22.4521 19.7208C22.2096 19.3578 22.0802 18.9311 22.0802 18.4946C22.0804 17.9094 22.3131 17.3482 22.7269 16.9343C23.1407 16.5205 23.7019 16.2879 24.2872 16.2876Z" fill="white"/>
</svg>
