<svg width="30" height="28" viewBox="0 0 30 28" fill="none" xmlns="http://www.w3.org/2000/svg">
<path opacity="0.33" d="M23.9954 6.66733C23.9954 6.63033 23.9954 6.59337 23.9954 6.55637C24.0014 6.45637 23.9513 6.42235 23.8613 6.42435C23.7973 6.42435 23.7344 6.42435 23.6704 6.42435H6.25844C6.20544 6.42435 6.15238 6.42435 6.09938 6.42435C5.98638 6.41835 5.93934 6.46331 5.93934 6.58231C5.93934 7.02131 5.92335 7.46033 5.92335 7.89933C5.92335 12.7407 5.92335 17.5817 5.92335 22.4223C5.92171 22.4964 5.92412 22.5705 5.93043 22.6443C5.92854 22.7404 5.94717 22.8357 5.98512 22.9239C6.02307 23.0122 6.07938 23.0913 6.1504 23.156C6.22143 23.2207 6.30547 23.2694 6.39686 23.299C6.48826 23.3285 6.58499 23.3382 6.68043 23.3274H23.3004C23.3677 23.3286 23.4348 23.3216 23.5004 23.3064C23.6561 23.2673 23.7923 23.1726 23.8831 23.0402C23.9739 22.9078 24.0131 22.7467 23.9934 22.5873L23.9954 6.66733ZM19.6743 15.9764C18.3543 17.297 17.0337 18.6177 15.7124 19.9383C15.6216 20.0483 15.5076 20.1368 15.3784 20.1974C15.2493 20.258 15.1083 20.2892 14.9657 20.2887C14.8231 20.2882 14.6823 20.2561 14.5536 20.1946C14.4249 20.1332 14.3114 20.0439 14.2213 19.9333L11.8864 17.5993C11.3404 17.0533 10.7924 16.5083 10.2484 15.9593C10.0944 15.8118 9.99318 15.6178 9.96046 15.407C9.92775 15.1963 9.96533 14.9806 10.0674 14.7934C10.1419 14.6691 10.2442 14.5636 10.3661 14.4852C10.488 14.4068 10.6264 14.3575 10.7704 14.3413C10.9144 14.325 11.0602 14.3423 11.1965 14.3915C11.3329 14.4408 11.456 14.5208 11.5564 14.6253C12.3184 15.3823 13.0763 16.1444 13.8353 16.9034C13.8653 16.9334 13.8944 16.9653 13.9264 16.9923C13.9584 17.0193 13.9734 17.0284 13.9934 17.0254C14.0334 17.0184 14.0234 16.9763 14.0254 16.9463C14.0254 16.8993 14.0254 16.8514 14.0254 16.8044C14.0254 14.8144 14.0254 12.825 14.0254 10.8363C14.0243 10.7145 14.0353 10.593 14.0584 10.4734C14.083 10.3527 14.1316 10.2383 14.2014 10.1368C14.2712 10.0354 14.3608 9.94906 14.4646 9.88291C14.5685 9.81676 14.6845 9.77217 14.8059 9.75181C14.9273 9.73144 15.0517 9.73567 15.1714 9.76432C15.3904 9.8153 15.5844 9.94198 15.7193 10.122C15.8541 10.302 15.921 10.5238 15.9083 10.7483C15.9083 11.7633 15.9083 12.7793 15.9083 13.7953C15.9083 14.7853 15.9083 15.7747 15.9083 16.7633C15.9083 16.8503 15.8654 16.9823 15.9364 17.0143C16.0074 17.0463 16.0744 16.9244 16.1364 16.8644C16.8864 16.1174 17.6314 15.3643 18.3834 14.6213C18.4775 14.522 18.5923 14.4448 18.7197 14.3952C18.8472 14.3455 18.9841 14.3248 19.1205 14.3343C19.2569 14.3439 19.3895 14.3836 19.5088 14.4505C19.6281 14.5174 19.7312 14.6099 19.8104 14.7214C19.9437 14.9115 20.0033 15.1436 19.9783 15.3744C19.9533 15.6053 19.8452 15.8192 19.6743 15.9764Z" fill="white"/>
<path d="M14.9811 0.400926C19.2478 0.400926 23.5125 0.400926 27.7752 0.400926C28.1582 0.374968 28.5386 0.480817 28.8532 0.700914C29.0415 0.835288 29.1944 1.01328 29.2989 1.21965C29.4034 1.42602 29.4563 1.65462 29.4532 1.88591C29.4532 4.31391 29.4532 6.74191 29.4532 9.16991C29.4628 9.37064 29.4316 9.57126 29.3614 9.75957C29.2912 9.94788 29.1835 10.12 29.0448 10.2654C28.9062 10.4109 28.7395 10.5267 28.5547 10.6059C28.37 10.685 28.1711 10.7258 27.9701 10.7259C27.3201 10.7489 26.6701 10.7259 26.0171 10.7349C25.8871 10.7349 25.8742 10.6669 25.8742 10.5649C25.8742 10.0989 25.8742 9.6339 25.8742 9.1649V5.60088C25.8833 5.44181 25.8556 5.28279 25.7931 5.13622C25.7307 4.98964 25.6353 4.8595 25.5142 4.75591C25.4211 4.67668 25.3119 4.61859 25.1941 4.58562C25.0764 4.55265 24.9529 4.54559 24.8322 4.56493C24.706 4.57892 24.5791 4.58487 24.4522 4.58287C18.8909 4.58287 13.3299 4.58287 7.76921 4.58287C6.86921 4.58287 5.96913 4.58289 5.06913 4.55889C4.93418 4.55268 4.79942 4.57458 4.67338 4.62322C4.54734 4.67185 4.43277 4.74617 4.33696 4.84142C4.24115 4.93666 4.16624 5.05075 4.11686 5.1765C4.06749 5.30225 4.0448 5.4369 4.05021 5.57189C4.05021 6.87322 4.05021 8.17492 4.05021 9.47692C4.05021 9.83592 4.04521 10.1959 4.05021 10.5559C4.05021 10.6889 4.00319 10.7299 3.87419 10.7279C3.24019 10.7229 2.60416 10.7279 1.97416 10.7219C1.57738 10.7219 1.1967 10.5647 0.915569 10.2847C0.634436 10.0047 0.47575 9.62468 0.474163 9.22789C0.432163 6.91089 0.466195 4.59293 0.457195 2.27593C0.451281 2.06441 0.461963 1.85277 0.489177 1.64293C0.539412 1.33777 0.683846 1.05592 0.902263 0.836961C1.12068 0.618006 1.40216 0.472908 1.70719 0.421922C1.84801 0.399084 1.99059 0.388705 2.13322 0.390916H14.9761L14.9811 0.400926Z" fill="white"/>
<path opacity="0.33" d="M14.97 25.126H23.6851C23.7431 25.126 23.8011 25.126 23.8591 25.126C23.9491 25.126 23.995 25.1601 23.995 25.2581C23.995 25.9581 24.0021 26.665 23.9891 27.369C23.9748 27.535 23.897 27.689 23.772 27.7991C23.647 27.9092 23.4845 27.9668 23.318 27.96C22.926 27.965 22.534 27.96 22.143 27.96C17.005 27.96 11.867 27.9621 6.72905 27.9661C6.6198 27.9778 6.50935 27.965 6.40569 27.9285C6.30202 27.8921 6.20777 27.8329 6.12993 27.7554C6.05208 27.6778 5.99257 27.5838 5.95573 27.4803C5.9189 27.3768 5.90567 27.2663 5.91704 27.157C5.92604 26.557 5.91704 25.957 5.91704 25.363C5.91704 25.129 5.92303 25.123 6.15703 25.123L14.97 25.126Z" fill="white"/>
</svg>
